<svg width="346" height="258" viewBox="0 0 346 258" fill="none" xmlns="http://www.w3.org/2000/svg">
<path fill-rule="evenodd" clip-rule="evenodd" d="M282.559 57.8905C282.658 59.7859 282.798 60.5392 284.143 61.762C284.591 62.1691 284.956 62.1451 285.236 62.1269C285.613 62.1017 285.833 62.0873 285.891 63.1628C285.927 63.8404 285.498 64.3065 285.067 64.7752C284.811 65.0529 284.554 65.3318 284.393 65.6563C282.3 69.8596 283.628 75.2479 284.68 79.5143L284.68 79.5158C284.716 79.6604 284.751 79.8038 284.786 79.9457C285.316 82.104 286.034 84.3088 286.761 86.539C288.989 93.3806 291.297 100.464 288.498 107.193C288.377 107.483 288.264 107.882 288.143 108.313C287.886 109.219 287.591 110.265 287.101 110.732C286.147 110.229 285.452 110.449 285.013 111.392C284.749 111.688 284.486 111.984 284.223 112.28C282.555 113.822 280.78 114.396 278.566 113.576C274.102 111.924 273.364 106.739 273.341 102.658C273.315 98.1603 274.273 93.4495 275.297 89.0674C275.337 88.8943 275.38 88.7189 275.422 88.542C275.9 86.5587 276.434 84.3449 275.136 82.5176C274.326 81.377 273.401 81.3184 272.504 81.2613C271.923 81.2244 271.354 81.1883 270.836 80.858C270.142 80.4148 270.288 78.5757 270.444 76.6221C270.601 74.638 270.768 72.5357 270.073 71.6583C267.665 68.6185 266.827 76.0548 266.788 77.5736C266.746 79.2373 266.836 81.1784 267.621 82.6865C267.902 83.229 268.476 83.7411 269.048 84.2517C269.724 84.8562 270.399 85.4585 270.585 86.1071C270.795 86.8346 270.27 88.3191 269.818 89.5974C269.576 90.283 269.354 90.9092 269.278 91.3281C268.943 93.1763 268.826 95.0645 268.73 96.9379C268.404 103.266 269.397 109.926 273.753 114.837C275.663 116.991 278.901 119.437 281.929 119.044C283.913 118.787 285.904 117.926 287.819 117.098C288.483 116.81 289.139 116.527 289.782 116.274C291.458 122.715 293.977 128.953 296.66 135.036C297.509 136.959 298.338 138.899 299.168 140.84L299.169 140.841C300.621 144.237 302.076 147.638 303.635 150.961C306.97 158.071 311.647 164.5 316.305 170.904C318.86 174.417 321.409 177.921 323.729 181.526C330.051 191.353 333.596 202.629 334.447 214.231C334.528 215.347 334.444 216.632 334.358 217.935C334.234 219.833 334.107 221.772 334.485 223.293C334.594 223.726 334.699 224.114 334.797 224.477C335.244 226.125 335.54 227.214 335.218 229.364C335.103 230.133 334.96 230.886 334.818 231.633C334.42 233.716 334.033 235.748 334.301 237.931C334.374 238.532 334.496 239.199 334.624 239.902V239.902C335.058 242.275 335.563 245.038 334.506 246.919C334.001 246.381 333.496 245.93 333.01 245.496C331.912 244.516 330.911 243.622 330.219 242C329.907 241.269 329.729 240.578 329.564 239.942C329.195 238.511 328.897 237.354 327.306 236.632C326.573 236.299 325.918 236.118 325.294 235.945L325.293 235.944C324.246 235.655 323.288 235.389 322.203 234.476C320.099 232.703 318.665 230.537 317.628 227.999C315.859 223.669 315.602 218.974 317.098 214.527C318.298 210.962 321.802 204.287 326.714 206.676C326.567 206.374 326.429 206.067 326.293 205.761C325.751 204.548 325.218 203.352 324.106 202.575C323.523 202.167 322.801 201.891 322.058 201.608H322.057C321.256 201.302 320.43 200.987 319.728 200.486C318.215 199.409 316.501 198.258 314.812 197.47C314.297 197.229 313.803 197.083 313.287 196.929L313.277 196.927L313.177 196.897L313.086 196.87L313.025 196.851C312.97 196.835 312.914 196.818 312.858 196.801C312.217 196.603 311.122 196.673 310.64 196.704C310.51 196.713 310.425 196.718 310.404 196.715C307.503 196.276 304.267 194.88 302.495 192.775C301.162 191.191 299.983 189.712 298.965 187.899C297.785 185.797 297.253 185.687 295.346 185.289C295.118 185.241 294.87 185.189 294.599 185.13C290.914 184.318 288.576 183.765 285.628 181.031C282.447 178.08 280.096 174.422 277.767 170.799L277.574 170.499C276.389 168.655 275.325 168.276 273.642 167.676H273.642C273.335 167.566 273.009 167.45 272.657 167.316C272.047 167.084 271.33 166.481 270.615 165.88H270.615C269.773 165.172 268.934 164.468 268.28 164.377C268.088 164.35 267.494 164.569 266.905 164.786C266.424 164.963 265.948 165.139 265.694 165.18C264.684 165.344 263.807 165.314 262.794 165.208C260.471 164.964 258.418 164.349 256.856 162.531C252.046 156.934 250.579 143.738 257.165 138.976C257.562 138.689 258.008 138.451 258.456 138.213C259.424 137.696 260.401 137.175 260.908 136.145C261.613 134.708 261.466 132.218 261.357 130.371C261.335 129.994 261.314 129.644 261.302 129.335C261.225 127.254 261.127 124.99 260.817 122.939C260.674 121.996 260.567 121.6 260.182 120.656C259.544 119.088 259.283 119.024 258.292 118.781C258.1 118.733 257.879 118.679 257.624 118.606C257.152 118.471 256.734 118.376 256.356 118.289C254.939 117.965 254.078 117.769 252.993 116.089C251.897 114.391 251.384 112.253 251.284 110.245C251.249 109.528 251.351 108.832 251.45 108.151C251.611 107.053 251.766 105.993 251.331 104.946C250.876 103.853 250.25 102.876 249.62 101.894C248.82 100.647 248.014 99.3887 247.544 97.8688C247.489 97.6908 247.427 97.496 247.361 97.2867C246.574 94.8051 245.15 90.3108 246.811 88.3644C247.164 87.9497 247.638 87.6902 248.127 87.4228C248.752 87.0803 249.401 86.725 249.851 86.0143C250.065 85.675 250.26 85.3596 250.444 85.062C251.454 83.4265 252.126 82.3376 253.877 80.8679C254.358 80.4639 254.833 79.9971 255.316 79.5234C256.365 78.4939 257.449 77.429 258.709 76.8926C259.741 76.4524 260.741 76.6677 261.682 76.8705C262.39 77.0231 263.065 77.168 263.695 77.0223C264.801 76.7659 264.942 74.9165 265.07 73.2456C265.127 72.4961 265.182 71.7827 265.32 71.2649C265.919 69.01 267.204 66.6592 268.76 64.8996C268.969 64.663 269.199 64.5032 269.425 64.346C269.762 64.1124 270.09 63.8842 270.332 63.4173C270.63 62.8417 270.702 62.1329 270.774 61.42C270.835 60.8227 270.896 60.2219 271.09 59.6946C271.6 58.3121 272.839 55.932 274.223 55.1741C276.497 53.9293 277.876 55.1874 279.195 56.39C280.222 57.3267 281.212 58.2299 282.559 57.8905ZM334.921 170.371C339.394 172.933 338.416 179.87 337.824 184.067C337.804 184.212 337.784 184.355 337.765 184.493C337.554 185.998 337.736 187.519 337.916 189.012C338.045 190.091 338.172 191.156 338.149 192.191C338.11 193.919 337.54 194.352 336.892 194.845C336.495 195.147 336.069 195.471 335.718 196.127C335.458 195.447 335.127 194.722 334.788 193.978C334.081 192.429 333.335 190.795 333.109 189.311L332.577 187.92C333.028 187.74 333.267 187.425 333.295 186.978C333.438 186.172 333.471 185.355 333.505 184.534V184.534C333.516 184.27 333.526 184.006 333.541 183.741C333.786 179.254 334.125 174.796 334.921 170.371ZM245.323 112.021V112.021V112.021L245.325 112.017C245.359 111.898 245.393 111.78 245.428 111.664C245.354 109.829 244.941 106.037 242.864 105.162C240.253 104.061 239.484 107.126 239.553 109.174C239.608 110.807 240.298 113.797 241.909 114.705C244.176 115.983 244.785 113.881 245.323 112.021ZM242.132 164.525V164.525C242.181 167.874 242.229 171.185 243.251 174.423C244.453 178.23 246.468 181.899 248.462 185.342C252.339 192.032 253.263 198.343 253.731 205.995C246.44 202.728 242.464 191.566 240.058 184.584C239.718 183.598 239.375 182.612 239.032 181.625L239.031 181.624V181.624C238.088 178.912 237.143 176.196 236.262 173.469C236.093 172.947 235.906 172.403 235.714 171.841V171.841C234.552 168.456 233.179 164.459 234.361 161.145C234.449 161.209 234.535 161.272 234.619 161.334L234.625 161.339C237.088 163.155 238.207 163.98 239.677 160.672C240.258 161.309 240.84 161.947 241.421 162.584L242.113 163.342C242.121 163.736 242.126 164.13 242.132 164.523V164.523V164.523V164.524V164.524V164.524V164.525ZM231.594 126.763C231.196 128.582 230.884 130.404 230.589 132.241C230.679 132.429 230.768 132.62 230.858 132.813H230.859C231.847 134.929 232.924 137.232 235.429 137.801C235.83 137.892 236.207 137.843 236.579 137.795C237.034 137.736 237.482 137.678 237.96 137.875C238.601 138.138 239.065 138.732 239.521 139.315C239.82 139.698 240.117 140.077 240.457 140.354C244.429 143.599 248.873 137.522 246.705 134.11C244.079 136.914 241.126 135.992 240.177 132.18C239.273 128.55 240.601 124.021 242.515 120.956C238.982 119.361 236.822 119.467 233.681 121.612C233.581 121.681 233.49 121.742 233.408 121.798L233.407 121.799C233.025 122.056 232.817 122.196 232.679 122.386C232.514 122.614 232.448 122.914 232.304 123.573V123.574L232.303 123.576C232.284 123.665 232.263 123.761 232.24 123.864C232.152 124.261 232.063 124.658 231.974 125.054V125.055V125.056C231.846 125.625 231.718 126.194 231.594 126.763ZM289.487 198.688L289.486 198.689C288.972 199.072 288.456 199.456 288.005 199.91C287.82 200.096 287.522 200.543 287.221 200.994C286.854 201.544 286.483 202.1 286.31 202.195C285.048 202.893 283.947 201.997 282.714 200.873C280.289 198.657 278.774 193.956 278.888 190.705C279.021 186.907 281.706 184.301 285.11 187.008C287.847 189.186 288.639 192.251 289.44 195.351C289.68 196.283 289.922 197.217 290.217 198.132C289.979 198.322 289.733 198.505 289.487 198.688ZM272.658 239.54C275.402 239.189 277.206 239.615 279.905 240.281C280.705 236.956 279.865 232.632 277.66 229.939C277.168 229.339 276.431 228.872 275.739 228.434C274.983 227.955 274.28 227.509 274.006 226.959C273.661 226.263 273.585 225.251 273.507 224.224C273.437 223.296 273.365 222.357 273.095 221.627C272.64 227.65 272.381 233.515 272.658 239.54ZM232.978 234.217C233.842 232.491 234.708 230.765 235.573 229.039C236.136 229.933 237.789 232.266 239.155 231.519C239.78 231.177 239.718 229.692 239.661 228.326C239.624 227.445 239.59 226.613 239.742 226.168C241.578 228.216 242.489 230.628 242.224 233.365C242.129 234.34 241.831 235.706 241.544 236.641C241.434 236.999 241.173 237.464 240.905 237.943C240.402 238.84 239.873 239.783 240.27 240.142C239.946 240.123 239.612 240.115 239.275 240.106H239.274C237.824 240.069 236.311 240.03 235.31 239.132C234.286 238.212 233.546 235.952 233.085 234.544C233.047 234.429 233.012 234.32 232.978 234.217ZM268.943 222.382C269.139 219.922 269.098 217.547 269.014 215.078C266.094 213.109 262.345 212.724 262.235 217.249C262.132 221.487 265.127 224.753 267.835 227.707L267.836 227.707L267.836 227.708L267.839 227.71C268.187 228.091 268.532 228.467 268.864 228.838C269.135 227.681 269.058 226.364 268.982 225.058C268.929 224.142 268.876 223.231 268.943 222.382ZM264.418 175.324C264.352 175.574 264.289 175.853 264.222 176.146C263.769 178.14 263.162 180.806 260.654 179.819C258.383 178.925 257.835 175.316 257.83 173.305C257.826 171.654 258.098 168.62 260.408 168.521C263.243 168.399 264.255 173.417 264.418 175.324ZM244.025 130.343C244.753 129.052 245.617 127.522 246.434 127.719C246.051 126.868 245.668 126.016 245.285 125.165C244.903 124.313 244.52 123.462 244.137 122.61C244.026 123.172 243.904 123.737 243.781 124.305C243.24 126.807 242.69 129.358 243.001 131.906C243.286 131.651 243.636 131.031 244.025 130.343ZM302.598 242.988C306.656 239.148 309.36 240.548 313.78 242.836C313.994 242.947 314.213 243.06 314.436 243.175C315.532 243.738 316.588 243.985 317.643 244.232C318.466 244.424 319.288 244.617 320.128 244.959C321.087 245.349 321.689 246.359 322.258 247.313C322.82 248.254 323.349 249.142 324.157 249.332C322.179 249.54 320.209 249.809 318.242 250.078H318.241C312.698 250.835 307.172 251.59 301.533 250.972C301.798 249.894 301.767 248.806 301.736 247.726C301.689 246.106 301.643 244.506 302.598 242.988ZM300.731 229.971C305.627 229.718 306.931 222.18 306.896 218.414C307.003 215.682 306.285 212.161 304.184 210.209C302.856 208.974 299.784 207.032 297.941 207.321C292.935 208.106 291.672 217.238 292.157 221.056C292.6 224.539 296.796 230.174 300.731 229.971Z" fill="#FFB319"/>
<path fill-rule="evenodd" clip-rule="evenodd" d="M227.303 60.7979C226.448 61.1826 228.081 64.0569 228.335 64.5842C228.998 65.9607 229.806 68.8049 231.376 68.022C230.019 65.6141 228.661 63.2058 227.303 60.7979ZM26.412 227.567C25.2676 227.06 23.737 231.425 23.5331 232.312C22.9643 234.783 23.4403 236.443 25.4183 238.041C24.5995 234.509 25.5803 230.992 26.412 227.567ZM290.584 40.618C289.161 38.7705 287.105 35.3403 284.229 37.1562C283.094 37.8738 282.22 40.1736 281.519 41.2971C280.419 43.0609 279.355 44.7588 278.518 46.6576C279.94 46.0733 280.778 44.8026 282.049 44.1079C282.917 43.6334 283.71 43.5878 284.546 43.2419C286.396 42.478 288.93 41.7289 290.584 40.618ZM58.5397 222.645C59.3097 225.659 60.0219 228.665 60.6177 231.717C61.0206 233.783 62.3746 236.702 61.6681 238.723C63.4985 238.477 65.3289 238.231 67.1592 237.985C65.8014 234.895 65.0869 231.597 64.6836 228.259C64.4367 226.216 64.7532 225.634 63.2139 224.497C62.022 223.617 59.9234 223.194 58.5397 222.645ZM48.4158 107.284C51.935 110.807 55.0129 114.822 58.7527 118.104C60.6961 119.81 62.6881 121.468 64.6825 123.113C66.3736 124.507 69.063 127.582 71.2639 128.009C71.5359 126.886 72.1793 125.045 72.0069 123.892C72.6491 123.228 72.4498 122.743 71.4089 122.436C70.772 121.946 70.1423 121.449 69.5188 120.942C67.0725 118.9 64.7574 116.682 62.4393 114.498C60.1349 112.327 58.0032 110.056 56.0028 107.603C54.949 106.311 54.3326 105.016 52.6042 104.637C50.5509 104.186 49.8677 105.787 48.4158 107.284ZM118.75 238.079C118.651 239.993 123.358 241.166 124.788 241.281C128.654 241.591 131.165 239.896 132.495 236.552C135.265 229.594 139.7 223.463 141.554 216.145C142.105 213.974 142.581 212.986 140.62 211.879C139.816 211.426 137.721 210.414 136.846 210.991C136.013 211.541 135.331 214.015 134.796 214.914C133.945 216.342 132.979 217.7 132.056 219.082C127.737 225.546 123.386 231.841 118.75 238.079ZM62.8841 142.243L80.9571 152.577C81.7108 149.976 82.0573 147.263 82.7638 144.64C83.2668 142.777 84.5607 140.144 84.4789 138.508C84.3568 136.065 82.4648 132.822 81.64 130.493C80.612 127.591 79.584 124.689 78.556 121.787C77.164 123.118 75.5611 124.048 75.544 125.782C75.5345 126.774 76.1953 127.392 75.8122 128.515C75.5432 129.303 74.3996 130.35 73.8472 130.935C72.2337 132.647 72.2843 132.733 70.5886 131.132C68.0206 134.836 65.4521 138.54 62.8841 142.243ZM82.7673 190.697C83.026 188.207 83.3581 185.82 83.9181 183.377C84.2624 181.876 85.7165 178.794 85.2383 177.38C84.8868 176.341 82.7973 175.438 81.9835 174.872C79.6293 173.237 77.3302 171.516 74.9996 169.847C72.9558 168.383 70.8816 166.955 68.8762 165.439C67.0188 164.035 65.6169 162.289 63.3691 161.687C61.4026 161.16 58.9072 161.504 56.8703 161.436C54.1367 161.345 51.3609 161.315 48.63 161.448C39.4653 161.897 29.1984 161.256 20.3815 163.812C16.2142 165.02 13.5279 165.731 11.1984 169.678C8.50438 174.243 6.20264 178.987 4.24294 183.918C3.95684 184.638 3.31007 185.677 3.3348 186.464C3.38197 187.966 3.91955 187.62 5.36032 188.477C6.91713 189.402 8.44313 190.501 9.93032 191.543C12.4805 193.331 15.6466 195.197 18.2924 196.591C21.4756 198.268 24.6825 199.772 27.9205 201.461C29.9723 202.531 32.096 203.406 34.1086 204.582C36.2935 205.859 38.7398 206.223 41.0952 207.22C48.3885 210.308 55.447 213.162 62.6041 216.685C69.5899 220.123 76.6561 223.029 83.8036 226.063C93.0414 229.982 102.188 233.608 111.822 236.319C112.527 236.517 114.01 237.217 114.707 237.185C116.196 237.117 116.534 236.029 117.429 234.802C119.187 232.391 120.881 229.935 122.563 227.471C126.211 222.126 129.779 216.722 133.706 211.575C122.576 208.469 112.256 202.739 102.472 196.859C102.055 198.029 101.724 200.623 100.388 201.014C98.7371 201.499 97.5376 199.211 96.7976 198.159C96.0972 199.903 94.8987 205.786 92.6571 205.657C89.5599 205.479 90.1066 200.604 89.7208 198.67C88.0133 200.939 86.0346 203.549 83.7142 200.059C82.106 197.64 82.2845 193.394 82.7673 190.697ZM211.725 162.896C210.29 162.448 208.864 162.049 207.46 161.546C207.091 160.763 206.478 160.526 205.622 160.834C204.92 160.897 204.238 160.81 203.575 160.573C200.642 160.072 197.395 159.421 194.593 158.576C192.098 157.823 189.745 157.158 187.21 156.592C185.705 156.257 179 154.36 178.009 155.476C177.704 155.82 178.228 159.984 178.154 160.726C178.023 162.046 177.958 164.219 177.122 165.318C176.801 165.739 175.58 166.206 175.139 166.535C173.705 167.601 172.38 168.926 170.953 170.032C167.839 172.446 164.806 174.951 161.628 177.286C159.382 178.936 156.811 179.752 154.317 180.951C156.091 181.269 159.565 179.561 161.356 179.031C163.677 178.345 165.954 177.582 168.327 176.953C173.193 175.665 178.178 174.21 183.124 172.838C186.161 171.996 189.369 171.118 192.314 170.003C193.62 169.508 194.645 168.357 195.508 169.529C196.196 170.463 195.363 171.693 194.834 172.386C191.747 176.427 183.362 177.41 178.875 179.086C173.81 180.977 168.813 182.969 163.598 184.298C157.508 185.85 150.897 187.037 145.222 189.762C140.513 192.023 135.18 192.899 130.174 194.226C125.472 195.472 119.897 195.722 115.454 197.837C117.373 199.353 120.213 200.144 122.45 201.163C125.188 202.41 127.955 203.548 130.664 204.87C131.817 205.433 133.023 206.269 134.19 206.737C135.67 207.331 135.48 207.018 137.01 206.897C139.39 206.71 142.602 206.282 144.536 208.015C146.869 210.106 145.39 212.396 145.733 214.954C145.968 216.707 146.087 216.426 148.035 216.694C149.827 216.94 151.617 217.227 153.385 217.61C155.568 218.084 157.802 218.877 159.928 219.561C163.225 220.623 163.583 221.871 167.019 220.502C176.806 216.601 186.927 213.395 196.776 209.704C201.313 208.004 205.869 204.725 210.139 202.262C215.617 199.101 220.571 195.682 224.28 190.42C225.971 188.021 227.734 183.97 227.379 180.992C227.061 178.329 225.091 175.369 223.821 173.079C222.199 170.156 220.771 169.021 218.29 167.079C216.565 165.729 213.9 162.878 211.725 162.896ZM102.736 185.525C102.887 186.995 102.028 193.055 102.879 193.987C104.335 195.581 107.904 193.72 109.285 193.246C113.771 191.703 118.986 192.041 123.554 190.819C127.986 189.635 132.321 188.1 136.778 186.893C139.169 186.245 141.438 185.23 143.789 184.459C146.407 183.6 149.329 183.129 151.757 181.838C151.456 181.091 140.952 182.887 139.758 182.984C135.612 183.321 131.708 182.682 127.621 181.93C118.607 180.272 110.113 176.341 101.215 173.79C101.632 177.894 113.18 178.711 111.805 183.473C111.421 184.8 106.254 186.97 104.546 186.137C101.075 184.445 105.321 182.063 107.051 181.469C104.417 179.959 101.897 178.32 99.4927 176.46C96.919 174.468 95.8115 171.673 94.4319 168.789C91.5485 162.76 84.7247 159.252 79.4242 155.499C73.6927 151.44 67.5899 147.99 61.8618 143.94C60.8395 143.217 60.362 143.549 60.0029 142.229C59.6186 140.816 61.0305 139.02 61.7157 137.942C63.5168 135.107 65.6146 132.425 67.9939 130.052C64.9256 127.964 61.6111 126.24 58.7337 123.877C55.8172 121.48 53.4036 118.556 50.8306 115.812C46.7202 124.757 40.9594 133.052 36.4354 141.823C34.6484 145.288 33.7038 150.528 36.4213 153.885C39.2812 157.418 44.614 156.043 48.651 156.23C52.9116 156.428 56.7984 156.91 61.0008 158.119C62.9019 158.666 64.6326 158.504 66.4599 159.382C68.603 160.412 70.7107 161.734 72.7496 162.955C76.7592 165.355 80.5051 168.359 84.2914 171.098C85.8444 172.221 94.2657 178.879 87.6047 177.851C87.6047 184.082 86.5132 190.463 85.9402 196.663C87.5199 194.777 88.6464 192.86 89.6021 190.593C90.1705 189.245 90.1777 185.804 92.072 186.62C94.9216 187.847 92.702 196.861 92.702 199.299C93.4081 197.935 93.9027 196.465 94.411 195.02C94.796 193.924 95.2773 190.819 96.0808 190.084C98.7706 187.625 99.1476 194.331 99.1476 195.73C100.019 193.258 100.179 190.62 100.267 188.008C100.301 186.978 100.046 185.375 100.307 184.378C100.739 182.717 100.688 182.825 102.428 182.123C102.531 183.256 102.633 184.391 102.736 185.525ZM185.828 238.106C186.042 240.214 186.857 241.74 185.471 243.636C188.151 243.445 190.788 243.209 193.472 243.277C195.627 243.332 198.849 243.825 200.859 242.902C201.678 242.526 201.957 243.173 202.378 242.455C202.778 241.772 201.839 239.507 201.726 238.945C201.184 236.248 200.92 233.482 200.427 230.769C200.09 228.904 199.097 225.236 200.345 223.474C202.181 220.88 202.989 224.534 203.468 226.155C205.043 231.499 204.952 236.574 204.952 242.064C207.325 242.064 210.442 241.028 212.731 240.403C215.888 239.54 219.258 238.654 222.317 237.528C225.201 236.466 227.742 234.916 229.566 232.422C230.93 230.556 233.954 225.953 233.203 223.89C232.282 221.361 227.889 219.622 225.543 219.344C222.5 218.983 219.38 219.594 216.266 219.851C212.932 220.126 209.698 220.868 206.399 221.226C203.196 221.572 198.896 222.641 195.784 221.84C195.703 223.12 196.774 224.841 197.146 226.144C197.635 227.853 198.072 229.578 198.469 231.31C198.893 233.164 201.524 239.83 199.132 241.163C196.324 242.728 194.983 236.029 194.634 234.396C193.8 230.502 193.083 226.612 193.956 222.698C190.372 222.052 186.049 223.011 182.353 223.266C183.73 228.117 184.618 233.197 185.828 238.106ZM31.4503 240.215C32.6967 240.769 34.4095 240.472 35.7643 240.578C37.8815 240.745 40.0204 241.127 42.1517 241.059C45.4038 240.956 48.813 240.545 52.0678 240.172C50.2112 236.824 49.0847 233.654 48.853 229.816C48.7697 228.438 48.0381 219.888 50.5818 220.254C51.8091 220.43 51.5485 227.73 51.7867 229.075C52.1329 231.026 52.5795 233.024 53.1232 234.934C53.5177 236.319 54.8599 238.393 54.516 239.892C56.1569 239.626 57.7982 239.36 59.4395 239.094C58.1634 236.55 57.2313 234.27 56.7535 231.432C56.5225 230.062 56.6698 228.358 56.222 227.057C55.9397 226.237 55.2959 225.466 55.21 224.779C55.1107 223.985 55.9796 222.036 55.6581 221.332C55.3424 220.639 53.1437 219.998 52.3733 219.616C50.25 218.564 49.0055 218.298 46.6258 218.903C42.0357 220.069 34.8036 220.897 31.3803 224.044C27.989 227.161 26.7548 237.675 31.4503 240.215ZM231.918 88.2658C233.188 88.1224 234.446 88.0337 235.723 87.9679C233.857 85.342 232.162 82.5975 230.615 79.7722C229.857 78.3881 229.141 76.982 228.455 75.5606C227.668 73.9296 227.69 72.8647 225.98 72.5406C223.612 72.092 220.446 72.9884 218.01 72.8864C216.128 72.8073 211.903 71.0367 210.387 71.6785C211.77 74.5113 210.66 78.9189 210.714 81.9682C210.768 85.0008 210.392 87.9322 209.858 90.9225C213.087 90.9225 217.128 89.8078 220.388 89.3098C224.182 88.73 228.051 88.6999 231.918 88.2658ZM180.66 243.941C181.904 243.782 183.086 243.732 184.342 243.732C181.513 239.147 179.377 234.019 179.353 228.555C179.35 227.84 180.21 223.733 179.926 223.391C179.371 222.726 177.072 223.251 176.442 223.314C173.866 223.572 171.002 223.552 168.577 224.48C166.903 225.121 166.885 224.734 166.219 226.704C165.826 227.869 165.543 229.199 165.535 230.424C165.519 232.9 166.309 235.793 167.329 238.022C168.301 240.144 169.836 242.419 171.947 243.558C174.38 244.872 177.808 244.09 180.66 243.941ZM206.379 73.5826C205.89 71.7557 206.102 72.1681 204.475 71.9414C204.133 71.8938 200.407 71.971 200.193 72.1894C199.947 72.4413 200.041 76.161 200.009 76.5867C199.898 78.0457 199.735 79.501 199.576 80.9554C198.931 86.86 197.707 92.576 196.79 98.4319C199.057 97.025 202.334 98.9432 204.271 97.4203C205.801 96.2169 205.572 92.3659 205.686 90.6668C206.068 84.9798 206.199 79.2788 206.379 73.5826ZM288.25 66.6873C288.046 67.0149 287.842 67.3425 287.639 67.67C288.43 68.1776 293.065 63.0144 294.096 62.0907C295.468 60.8607 297.641 59.2183 298.26 57.4199C298.979 55.3301 298.271 52.0308 298.097 49.8698C297.973 48.3233 298.237 46.1844 296.976 45.1039C295.816 44.1098 292.957 44.1364 291.583 44.3491C287.459 44.9875 284.979 48.3788 282.897 51.6104C285.011 51.3505 292.463 47.9485 293.328 49.7884C294.586 52.4615 286.759 54.8515 285.985 57.1969C287.588 57.7627 291.121 55.5682 290.127 59.2194C289.957 59.7304 289.661 60.1534 289.24 60.4886C288.508 60.7477 288.335 61.2358 288.72 61.9534C288.393 63.3835 288.46 65.1929 288.25 66.6873ZM335.718 196.127C335.74 196.994 335.819 197.822 336.528 198.435C338.099 193.459 338.59 188.481 339.241 183.306C339.892 178.131 340.585 172.826 340.688 167.655C340.804 161.86 340.257 155.555 339.319 149.829C338.586 145.353 338.018 139.845 335.35 136.035C336.865 145.908 336.394 155.269 335.372 165.177C334.829 170.437 334.064 175.658 333.712 180.941C333.62 182.337 333.59 183.749 333.469 185.142C333.397 185.963 332.584 187.517 332.577 187.92C332.537 190.157 334.932 194.073 335.718 196.127ZM255.078 188.437C256.339 191.338 257.772 194.194 258.528 197.279C259.326 200.535 258.982 203.568 259.11 206.868C259.322 212.343 258.883 217.786 258.96 223.269C259.025 227.942 258.846 232.499 258.893 237.122C258.922 240.047 258.762 242.961 258.772 245.885C258.772 245.876 258.889 248.509 258.687 248.642C257.784 249.242 256.798 248.39 256.521 247.57L253.845 250.598C255.248 250.246 256.973 249.509 258.415 249.444C258.967 249.241 259.517 249.236 260.064 249.427C260.608 249.756 261.011 250.214 261.273 250.802C265.051 251.607 267.319 248.244 267.998 245.237C269.47 238.714 268.939 232.273 268.832 225.687C268.601 211.379 270.874 197.157 270.659 182.847C270.618 180.078 270.512 177.342 270.928 174.578C271.701 169.444 272.841 174.144 273.024 176.567C273.574 183.848 274.532 191.361 274.005 198.687C273.531 205.288 273.575 211.95 273.246 218.571C272.897 225.609 272.334 232.497 272.658 239.54C274.548 239.298 280.626 238.938 281.259 241.593C281.811 243.908 279.59 243.051 278.436 242.954C276.565 242.795 274.737 243.234 272.692 242.867C272.842 245.982 273.272 250.158 270.489 252.261C269.12 253.295 266.853 254.229 265.253 254.839C263.686 255.437 261.031 256.762 259.398 256.689C258.243 256.638 257.798 256.016 256.53 256.115C254.649 256.263 253.021 257.521 251.027 256.482C247.245 254.511 249.104 248.777 251.492 246.48C252.107 245.887 252.799 245.239 253.625 244.951C254.018 244.813 255.661 244.979 255.851 244.773C256.55 244.014 255.677 239.574 255.584 238.732C255.093 234.312 254.559 229.797 254.358 225.358C254.169 221.183 253.958 217.001 253.814 212.825C253.783 211.915 254.187 210.046 253.806 209.251C253.172 207.93 250.393 207.089 249.187 206.474C250.262 216.998 251.84 228.31 247.951 238.334C247.179 240.325 246.313 243.166 244.354 244.273C242.509 245.317 238.163 245.17 235.951 245.294C233.574 245.427 231.246 244.872 229.936 242.639C228.905 240.882 229.523 238.774 231.639 238.008C232.907 237.55 233.154 237.844 234.264 238.39C234.505 238.781 234.673 239.201 234.771 239.651H235.625C236.781 240.167 241.404 240.744 242.675 239.921C244.148 238.968 244.468 236.39 245.096 234.859C246.263 232.013 246.572 229.704 246.995 226.663C247.658 221.903 246.987 216.383 246.999 211.424C247.003 210.027 247.009 208.63 247.011 207.233C247.013 205.124 247.197 205.137 245.993 203.618C244.179 201.329 242.111 198.99 240.169 196.796C241.221 203.206 240.791 209.955 240.373 216.342C240.139 219.93 239.653 223.584 239.431 227.124C239.364 228.188 240.128 231.121 238.893 231.591C237.639 232.068 236.079 229.843 235.573 229.039C232.809 234.554 229.51 239.873 223.809 242.726C220.877 244.193 217.824 244.855 214.624 245.43C211.66 245.963 208.921 246.936 205.999 247.395C199.95 248.344 194.379 248.478 188.293 248.271C182.551 248.075 177.052 249.136 171.329 247.8C169.095 247.28 166.837 246.323 165.31 244.613C164.477 243.679 164.108 242.211 163.268 241.35C163.078 240.237 162.424 239.894 161.303 240.32C160.599 240.352 159.898 240.328 159.199 240.25C153.458 239.949 147.078 240.285 141.515 238.645C139.404 238.022 137.046 236.997 138.1 234.355C139.021 232.045 141.561 232.746 143.645 232.948C149.696 233.534 155.654 234.604 161.793 235.142C161.595 231.935 161.765 228.662 163.023 225.662C158.764 225.127 154.349 224.321 150.296 222.961C149.045 222.541 147.799 222.105 146.558 221.656C144.512 220.916 144.937 220.724 143.752 222.016C142.263 223.638 141.352 227.023 140.273 228.983C139.059 231.189 137.894 233.37 136.871 235.672C135.902 237.851 135.18 240.77 133.705 242.648C130.46 246.779 122.964 247.137 118.553 245.514C116.393 244.719 115.613 244.594 114.303 242.658C112.869 240.537 112.512 240.413 109.869 240.125C105.096 239.604 100.592 238.406 96.1208 236.752C91.3971 235.005 86.5467 233.642 81.8367 231.756C77.4276 229.989 73.1662 228.213 68.6042 226.834C68.0628 230.275 70.3059 234.155 70.3059 237.702C72.9603 237.437 75.4356 237.204 78.0668 236.781C79.005 236.631 84.9161 235.305 85.4928 236.087C87.8969 239.35 76.9581 240.885 75.2484 241.316C69.7695 242.698 64.1826 243.983 58.669 245.052C53.0414 246.142 47.5553 247.229 41.8424 247.425C32.1755 247.756 18.8418 247.197 19.3033 234.497C19.4843 229.52 21.5346 224.119 25.4578 220.874C27.8988 218.854 30.9428 217.744 33.9271 216.83C35.0296 216.492 40.838 215.703 41.0145 215.269C39.3778 214.096 36.5804 213.79 34.6385 212.886C32.7872 212.024 30.8336 211.703 28.9386 210.834C25.1519 209.098 21.4947 206.976 17.9934 204.829C15.2087 203.122 12.3934 201.237 9.82988 199.207C7.79293 197.594 5.84083 196.044 4.2125 194.201C3.36029 193.236 1.85179 192.382 1.16926 191.552C-1.22759 188.635 1.30014 182.831 2.32089 179.435C3.81188 174.471 5.80165 169.189 8.73608 164.889C11.4346 160.935 14.4432 158.271 19.2839 157.345C23.7515 156.49 28.2439 156.219 32.8131 155.979C32.0454 153.058 30.9645 150.997 31.2388 147.793C31.4975 144.772 33.0231 141.77 34.2204 139.018C36.4464 133.903 38.5465 128.896 41.5909 124.186C43.2641 121.598 45.1436 119.141 46.9701 116.661C47.2646 116.261 49.0953 114.432 49.0253 113.917C48.9557 113.405 47.1174 111.845 46.8358 111.488C44.9454 109.088 43.6385 106.504 45.8584 103.936C47.0158 102.597 50.4185 99.8924 52.0564 101.594C53.8274 98.0153 56.925 95.5755 59.3367 92.5311C62.3434 88.7349 65.2143 84.8809 68.0289 80.9048C70.8313 76.9458 73.1205 72.6928 76.8353 69.5023C80.975 65.947 84.8719 66.2544 89.9563 67.7743C90.2466 65.813 90.6502 66.074 92.5472 65.4193C93.983 64.9235 95.3785 64.3354 96.7904 63.7757C98.2909 63.1803 99.8096 62.8425 101.344 62.3745C103.387 61.7513 103.694 61.9549 104.026 59.3012C104.428 56.0948 103.056 52.7046 102.171 49.6841C101.734 48.1939 101.43 46.3388 100.448 45.3363C99.5585 44.4297 97.9823 44.0169 97.0099 43.0144C88.6316 34.3778 88.4995 15.9372 97.4242 7.91037C99.1587 6.35014 100.589 4.25118 102.748 3.19771C105.119 2.04075 108.246 1.10522 110.857 0.560033C116.239 -0.563062 122.275 -0.206578 126.529 3.57664C128.627 5.44238 129.906 8.408 130.622 11.0571C131.305 13.5875 131.159 17.8645 128.568 13.9539C126.935 11.4874 125.516 8.97183 122.751 7.75172C120.281 6.66173 117.264 6.07317 114.572 6.30448C108.228 6.84929 103.088 8.71199 98.6964 13.4071C93.8411 18.5984 93.5942 26.8867 94.6408 33.4879C95.563 31.5354 96.1877 28.4439 98.7733 28.071C100.928 27.7602 104.325 30.5116 103.169 32.8803C97.9211 31.5427 96.3863 39.4781 100.924 39.956C102.298 40.1006 104.038 37.655 105.303 38.2245C107.668 39.289 104.498 42.9574 103.873 44.1653C103.541 44.3696 103.209 44.5739 102.876 44.7786C103.204 45.5387 103.534 46.2977 103.868 47.0552C104.272 48.0212 104.657 48.9894 105.012 49.9748C105.877 52.3728 106.774 54.8454 107.295 57.3434C107.825 59.8833 108.1 62.8493 106.848 65.2355C105.472 67.8584 104.175 67.5357 103.118 65.0407C100.351 66.7851 97.568 68.6451 94.3148 69.3334C97.7263 75.0569 102.143 79.9773 108.783 81.7776C114.411 83.3036 121.495 83.2477 126.865 80.7234C132.438 78.1039 135.504 71.9817 134.841 65.8907C134.626 63.918 133.478 57.0661 136.209 62.0226C137.707 64.7409 137.817 69.1504 137.475 72.1312C135.842 86.3898 121.388 91.7241 108.925 88.2917C102.531 86.5306 97.9241 81.8168 94.4939 76.2679C93.6939 74.974 92.9619 73.6386 92.247 72.296C91.9613 71.7595 91.7098 71.0104 91.3286 70.5398C89.8345 68.6957 91.3023 69.7233 89.7162 69.4924C87.2615 69.1355 83.3988 71.0153 81.5761 72.5048C76.6306 76.5456 73.8913 83.0095 70.0955 88.1022C66.0544 93.5237 60.9221 98.3489 55.7738 102.675C61.5974 108.64 67.4206 114.604 73.2442 120.569C74.4472 119.237 76.7341 116.194 77.054 114.413C77.2416 113.37 76.3996 109.935 78.989 111.464C80.7372 112.496 81.4003 116.914 81.9455 118.722C82.7878 121.514 84.2061 124.142 85.123 126.905C86.8236 132.032 88.9188 137.112 90.6609 142.275C91.3693 144.375 93.3891 146.98 91.4484 148.757C88.4988 151.458 87.6218 146.141 86.8408 144.11C85.7531 145.622 85.8942 148.074 85.3334 149.838C84.991 150.915 83.9482 152.592 83.9828 153.654C84.0418 155.469 85.6895 156.009 87.1744 157.023C89.9369 158.91 92.7716 160.753 95.302 162.951C96.3578 163.867 97.3291 164.795 98.0995 165.974C98.7721 167.004 98.9745 169.326 99.7179 170.043C100.69 170.979 104.285 170.326 106.183 170.53C109.353 170.871 112.565 171.998 115.642 172.808C121.087 174.241 126.687 176.304 132.39 177.07C137.99 177.822 143.245 177.448 148.827 176.447C151.876 175.9 155.15 175.246 157.932 173.78C161.137 172.092 163.979 169.39 166.972 167.35C168.312 166.437 169.682 165.574 171.052 164.709C172.883 163.552 172.404 163.802 172.523 161.965C172.661 159.838 173.549 155.776 172.129 153.883C171.535 153.093 169.715 152.515 168.858 151.94C167.612 151.103 166.494 150.132 165.159 149.459C163.701 148.724 163.658 149.306 162.981 147.503C162.367 145.867 161.961 144.152 161.397 142.499C158.815 134.934 158.148 127.252 157.078 119.353C156.581 115.684 155.362 110.692 156.743 107.118C158.663 102.147 160.27 109.099 160.676 110.881C162.509 107.74 163.562 104.248 165.47 101.148C166.582 99.34 167.126 98.4163 167.752 96.4357C168.006 95.6337 168.108 94.9675 168.644 94.3013C169.779 92.8921 169.947 93.6953 171.127 93.6606C174.839 93.5518 178.487 93.6473 182.203 93.8193C184.256 93.9144 186.31 93.9646 188.377 93.957C189.385 93.9532 190.404 93.9041 191.411 93.9619C191.954 93.9562 192.494 93.9966 193.031 94.0833C194.139 94.6007 194.562 94.1548 194.3 92.7453C195.266 90.7262 195.201 87.5045 195.543 85.3017C195.887 83.0844 196.206 80.8634 196.493 78.6377C196.647 77.448 197.936 72.9591 197.252 71.9817C196.573 71.0127 193.039 71.2299 191.993 71.0561C185.04 69.9002 178.572 67.0351 172.069 64.6877C168.867 63.5322 165.828 61.972 162.757 60.5544C161.158 59.8164 159.647 58.2964 157.962 57.8232C155.836 57.2259 153.013 58.1808 150.893 58.5403C146.855 59.2255 142.96 59.8255 138.862 60.0484C137.415 60.1272 134.661 60.5331 133.355 59.5382C130.731 57.5401 133.719 56.3717 135.433 56.1195C143.018 55.004 150.58 54.363 158.223 53.8973C158.582 53.8756 159.894 53.6089 160.331 53.7466C161.326 54.0609 160.925 54.4253 161.521 54.7495C162.626 55.3498 163.887 55.7919 165.289 56.1644C169.292 57.2274 173.322 59.0109 177.338 60.4125C184.565 62.9342 193.198 66.9548 200.425 66.2479C202.209 66.0737 203.675 65.8507 205.54 66.0314C207.724 66.2433 208.998 67.3634 210.676 67.6891C212.924 68.1251 216.139 67.7975 218.505 67.8812C220.761 67.9611 223.019 68.0657 225.276 68.0657C223.294 64.0801 222.087 60.338 220.973 56.0575C220.365 53.723 219.451 51.6028 219.847 49.1443C220.034 47.9839 220.498 46.8935 221.003 45.8454C221.767 44.2631 221.983 44.5941 222.254 42.8417C222.627 40.43 222.093 37.8871 222.386 35.4682C222.686 32.9857 224.562 30.773 224.771 28.3997C224.883 27.137 224.176 26.1064 224.388 24.7444C224.577 23.5262 225.298 22.249 225.946 21.2233C227.455 18.8332 229.292 17.478 231.842 16.5044C233.892 15.7218 236.508 15.0039 238.579 16.2712C240.692 17.564 240.539 20.1659 241.552 22.0645C243.729 26.1467 248.751 29.7949 252.755 31.8797C256.433 33.7949 260.396 35.0048 264.34 36.2538C266.74 37.0139 269.208 37.5561 271.567 38.4247C273.265 39.0501 276.034 40.567 277.763 39.6455C279.27 38.8424 281.027 36.3915 282.519 35.2536C284.264 33.9224 286.591 32.6231 288.788 33.7828C290.985 34.942 290.805 39.2152 292.514 40.0188C293.109 40.2988 294.878 39.4785 295.69 39.6079C297.001 39.8164 297.904 40.6279 298.69 41.6269C301.625 45.3603 302.534 51.2821 302.663 55.8844C302.727 58.1831 302.671 61.0422 301.267 62.9939C299.63 65.2705 296.53 65.3268 294.428 66.9289C292.747 68.2103 291.556 70.305 289.85 71.6705C288.799 72.512 288.393 71.8657 287.958 73.1771C287.674 74.0301 288.247 75.6942 288.416 76.5194C289.461 81.6106 291.418 86.3065 293.276 91.1565C294.151 93.4419 294.893 95.7276 295.292 98.1496C295.554 99.7387 295.252 101.128 295.379 102.657C295.469 103.746 295.932 104.686 295.83 105.802C295.614 108.166 294.33 110.254 293.514 112.333C292.583 114.703 293.862 118.808 294.799 121.259C297.045 127.132 300.204 133.065 303.011 138.707C305.767 144.25 307.818 150.153 311.03 155.478C314.149 160.649 317.819 165.712 321.369 170.603C323.343 173.324 325.438 175.911 327.227 178.765C327.618 179.389 330.288 184.563 330.98 184.384C330.131 175.354 330.99 165.963 331.37 156.939C331.844 145.643 330.407 135.41 327.228 124.628C326.485 122.107 325.823 119.527 325.3 116.951C324.934 115.147 323.901 113.665 326.437 114.454C330.637 115.759 334.333 123.688 336.469 127.139C341.251 134.869 345.245 145.177 345.781 154.243C346.307 163.141 345.853 171.656 344.741 180.424C344.192 184.749 343.306 189.571 341.951 193.707C341.254 195.835 340.417 198.039 339.488 200.078C339.097 200.939 338.236 201.911 338.088 202.857C337.853 204.357 338.952 206.381 339.227 207.862C340.125 212.709 340.332 217.733 340.026 222.652C339.862 225.291 339.497 227.65 338.636 230.132C337.539 233.293 338.049 235.707 338.506 238.966C338.994 242.453 339.462 250.38 335.836 252.361C335.58 252.335 335.323 252.308 335.067 252.282C334.419 251.535 333.844 251.58 333.342 252.415C332.404 252.721 331.488 253.509 330.5 253.848C328.208 254.635 325.734 254.683 323.344 255.029C318.664 255.707 314.001 256.902 309.403 257.046C303.96 257.217 298.281 257.004 292.959 256.05C291.859 255.852 290.573 255.331 289.472 255.231C287.979 255.095 286.931 256.088 285.389 255.854C283 255.492 281.49 252.964 281.334 250.892C280.836 244.29 284.499 241.262 290.485 240.089C286.617 234.552 282.164 230.009 281.135 222.897C280.122 215.9 282.319 207.802 286.31 202.196C290.14 196.814 296.676 193.216 303.417 194.582C306.545 195.216 321.304 199.573 318.451 204.516C317.818 202.255 313.927 202.692 312.048 202.366C308.929 201.824 305.81 201.007 302.646 201.175C296.423 201.506 290.408 205.188 287.394 210.76C283.92 217.185 285.505 223.596 289.688 229.081C293.512 234.097 297.455 239.366 302.598 242.988C301.604 244.569 301.963 245.065 299.988 244.782C298.632 244.587 297.364 243.53 295.994 243.267C293.152 242.721 288.679 245.049 286.924 247.378C285.886 248.754 285.925 249.433 287.838 250.281C289.249 250.906 291.472 250.583 292.988 250.718C296.759 251.055 300.603 251.167 304.387 251.154C310.936 251.13 317.027 250.079 323.509 249.399C326.382 249.097 329.386 249.445 332.197 248.388C336.004 246.956 335.071 242.751 334.578 239.345C334.089 235.97 334.587 233.353 335.117 230.012C335.347 228.56 335.776 226.885 335.472 225.424C335.111 223.688 334.464 222.92 334.547 220.984C334.84 214.095 333.976 206.841 332.15 200.192C328.185 185.751 318.502 174.354 310.426 162.08C308.145 158.613 305.747 155.329 303.931 151.574C302.211 148.017 301.026 144.255 299.318 140.689C295.553 132.827 291.982 124.729 289.782 116.274C287.288 117.255 284.602 118.698 281.929 119.044C278.9 119.437 275.663 116.991 273.753 114.837C269.397 109.926 268.404 103.266 268.73 96.9378C268.826 95.0645 268.942 93.1763 269.278 91.3281C269.496 90.1285 270.907 87.2249 270.586 86.1071C270.241 84.911 268.236 83.8712 267.621 82.6865C266.836 81.1784 266.746 79.2373 266.788 77.5736C266.827 76.0548 267.665 68.6185 270.073 71.6579C271.452 73.3993 269.436 79.9644 270.836 80.858C272.096 81.6619 273.83 80.6796 275.136 82.5176C276.547 84.5039 275.791 86.9521 275.297 89.0674C274.274 93.4419 273.315 98.1656 273.341 102.658C273.364 106.749 274.095 111.921 278.566 113.576C280.824 114.412 282.538 113.837 284.222 112.28C284.609 111.836 285.002 111.398 285.404 110.968C285.772 110.335 286.338 110.256 287.1 110.732C287.664 110.284 288.501 107.187 288.783 106.495C292.245 98.0111 286.787 88.27 284.786 79.9457C283.562 74.8541 282.494 69.7469 284.972 64.833C285.373 64.0375 286.478 63.3462 285.815 62.2048C285.64 61.9047 283.972 61.7639 283.578 61.415C282.291 60.2794 282.559 58.1622 282.559 56.646C279.584 57.5637 278.726 55.2486 279.113 52.4112C276.893 52.7631 275.352 53.4419 274.53 50.8738C273.801 48.5964 274.902 46.2742 275.632 44.152C265.362 43.0513 254.271 41.641 246.087 34.5547C244.069 32.8073 242.391 30.6079 240.992 28.3294C240.739 27.9173 239.549 25.0168 239.155 24.8653C237.983 24.4153 236.999 26.7086 235.958 27.2766C235.031 27.7811 233.715 28.0592 232.686 28.3666C231.718 28.6562 228.305 28.714 227.7 29.2166C226.186 30.4736 226.306 37.7406 226.294 39.4272C226.253 45.2359 227.55 51.0245 229.948 56.3132C232.206 61.294 235.662 68.1437 240.179 71.4034C241.32 72.2275 242.348 72.6547 243.794 72.5866C244.827 72.5383 245.852 71.8147 246.928 72.1909C249.651 73.1436 248.677 75.0363 246.584 75.9312C240.601 78.4901 235.558 72.8647 232.098 68.9347C231.085 73.5975 235.783 79.1152 238.269 82.9197C239.853 85.3443 241.419 87.7712 242.925 90.2453C244.02 92.0422 246.17 95.3605 242.35 93.9726C240.507 103.644 235.45 112.103 232.867 121.502C230.215 131.15 227.904 142.167 227.904 152.215C229.923 150.81 230.941 144.405 233.657 149.307C233.95 149.837 233.858 150.715 234.245 151.178C234.781 151.819 235.426 151.641 236.246 152.098C237.547 152.822 238.387 154.266 237.224 155.517C238.722 155.169 240.291 155.346 240.614 157.118C240.795 158.113 239.339 162.72 238.252 163.096C234.939 164.243 231.267 157.629 230.369 155.526C228.3 157.603 225.916 159.2 224.009 155.841C222.587 153.338 223.412 149.55 223.613 146.825C224.017 141.335 224.544 135.98 225.336 130.543C226.821 120.348 230.591 111.281 235.222 102.104C236.497 99.5778 237.909 96.9923 239.048 94.4078C240.765 90.5086 238.078 91.4285 235.452 91.9946C230.306 93.1044 224.917 93.9654 219.718 94.3584C217.003 94.5634 213.528 94.6856 210.92 95.4701C209.086 96.0217 209.4 95.6409 208.664 97.6048C208.334 98.4836 207.963 99.4184 207.382 100.171C204.419 104.01 196.744 103.368 192.506 103.082C192.763 101.463 193.017 99.8426 193.283 98.2249C190.02 98.9915 186.145 99.5253 182.785 99.4861C180.976 99.4656 179.052 99.1897 177.247 99.0395C175.917 98.9288 173.394 97.9856 172.142 98.3524C170.691 98.7781 168.495 104.027 167.665 105.72C166.106 108.899 163.321 112.43 162.337 115.777C161.465 118.744 163.245 123.863 163.804 126.817C164.611 131.086 165.347 135.364 166.701 139.503C167.683 142.505 168.814 146.642 171.827 148.139C174.83 149.631 176.988 150.471 180.238 150.167C185.96 149.632 192.049 150.51 197.698 151.623C203.516 152.768 208.844 153.284 214.368 155.326C226.899 159.957 234.878 174.223 230.153 187.293C227.436 194.81 222.96 200.396 216.393 205.046C213.047 207.416 209.094 209.339 205.425 211.165C203.741 212.003 202.085 213.021 200.369 213.766C199.115 214.31 196.958 215.563 195.596 215.701C197.108 216.42 198.447 215.746 200.021 215.523C202.248 215.206 204.522 215.138 206.756 214.862C210.235 214.431 213.662 214.106 217.142 213.675C220.112 213.306 223.464 213.175 226.416 213.6C227.842 213.805 229.988 214.21 231.258 214.897C232.256 215.437 233.172 216.682 234.246 217.299C235.428 212.447 234.875 206.467 234.93 201.482C234.976 197.413 235.157 193.433 235.54 189.383C235.969 184.853 233.198 179.701 232.174 175.265C231.217 171.112 228.665 165.849 229.604 161.515C230.789 156.051 233.888 165.866 234.314 167.27C235.649 171.661 237.197 175.947 238.676 180.286C240.435 185.447 242.207 190.449 244.768 195.286C246.9 199.31 249.35 204.032 253.731 205.995C253.369 200.076 252.968 194.595 250.507 189.138C248.174 183.963 244.615 179.361 243.06 173.816C242.287 171.061 242.174 168.243 242.135 165.396C242.109 163.482 242.197 160.907 244.251 162.972C245.88 164.609 246.196 169.831 246.909 172.036C247.252 173.096 247.728 174.07 248.107 175.102C248.278 175.567 249.428 177.831 249.428 178.134C250.614 181.712 253.236 185.145 255.078 188.437Z" fill="#081920"/>
<path fill-rule="evenodd" clip-rule="evenodd" d="M129.316 57.9909C129.429 59.3769 130.233 62.9691 129.203 64.066C127.838 65.5212 127.192 63.6494 126.602 62.1736C125.368 59.0897 124.755 53.1177 127.192 50.5477C129.737 47.864 134.764 47.7917 137.479 45.1191C138.569 44.0454 138.465 44.2695 138.37 42.591C138.316 41.6433 137.703 40.384 137.407 39.5321C136.636 37.3187 135.791 35.1318 134.986 32.9313C133.578 33.5731 131.551 35.553 130.164 33.8934C128.882 32.3591 131.015 29.8451 132.501 29.3965C131.725 27.7008 128.071 28.0143 127.375 25.5235C126.77 23.3587 128.508 24.2189 128.888 23.3663C129.335 22.3631 128.419 21.0068 128.89 20.0824C130.527 16.8725 132.339 22.7743 133.154 23.8278C134.67 25.7871 137.311 26.2152 137.543 29.1789C137.687 31.0035 137.549 31.8519 138.301 33.6439C138.993 35.2935 139.816 36.8754 140.396 38.573C141.27 41.1308 142.618 45.7856 140.91 48.2624C139.47 50.3514 135.972 51.944 133.698 52.8373C132.559 53.2843 130.979 53.5567 130.058 54.4276C128.855 55.5636 129.23 56.2618 129.316 57.9909Z" fill="#081920"/>
<path fill-rule="evenodd" clip-rule="evenodd" d="M247.484 135.336C247.224 134.927 246.964 134.519 246.705 134.11C244.905 136.032 242.912 136.822 241.093 134.38C239.22 131.866 239.923 128.096 240.652 125.35C241.026 123.937 242.922 118.367 244.136 122.61C244.404 123.547 243.508 125.633 243.346 126.55C243.027 128.348 242.776 130.074 243.001 131.906C245.111 130.017 246.144 125.229 248.286 130.201C249.062 132.004 249.147 134.973 251.215 132.234C252.318 130.772 252.389 128.072 252.906 126.349C256.43 127.192 255.788 132.403 254.611 134.942C252.738 138.986 250.189 137.684 247.484 135.336Z" fill="#081920"/>
<path fill-rule="evenodd" clip-rule="evenodd" d="M259.823 44.6394C261.076 46.73 258.705 50.5532 258.275 52.6997C260.375 52.4566 265.572 47.3916 267.034 48.2267C270.079 49.9646 263.647 56.026 262.412 56.9143C252.536 64.0128 254.316 43.4794 259.823 44.6394Z" fill="#081920"/>
<path fill-rule="evenodd" clip-rule="evenodd" d="M247.438 67.9203C251.128 66.8931 256.103 73.5152 253.71 76.7947C251.993 79.1471 249.871 77.8018 249.333 75.731C249.059 74.6748 249.303 73.4022 248.944 72.2243C248.502 70.7741 247.911 69.3614 247.438 67.9203Z" fill="#081920"/>
<path fill-rule="evenodd" clip-rule="evenodd" d="M133.953 39.3761C136.759 41.7345 131.025 47.4843 128.151 42.982C127.36 41.7437 127.216 40.6133 128.389 40.156C128.981 39.9255 130.376 40.6807 131.212 40.5471C132.128 40.4007 133.123 39.7566 133.953 39.3761Z" fill="#081920"/>
<path fill-rule="evenodd" clip-rule="evenodd" d="M124.311 29.9456C123.222 28.5874 120.162 20.2326 123.954 22.0935C125.858 23.0279 127.431 30.1701 124.311 29.9456Z" fill="#081920"/>
<path fill-rule="evenodd" clip-rule="evenodd" d="M249.51 209.638C249.402 208.583 249.294 207.529 249.187 206.474C250.587 207.188 253.396 207.893 253.883 209.492C254.799 212.494 250.547 210.092 249.51 209.638Z" fill="#081920"/>
<path fill-rule="evenodd" clip-rule="evenodd" d="M290.153 82.4663C289.319 81.3398 286.726 71.943 288.976 72.1579C289.37 75.5668 289.451 79.1069 290.153 82.4663Z" fill="#081920"/>
<path fill-rule="evenodd" clip-rule="evenodd" d="M255.078 188.437C253.235 185.145 250.614 181.713 249.428 178.134C252.207 180.385 254.379 184.983 255.078 188.437Z" fill="#081920"/>
<path fill-rule="evenodd" clip-rule="evenodd" d="M330.643 180.804C330.756 181.998 330.868 183.191 330.98 184.384C329.311 184.815 330.541 181.198 330.643 180.804Z" fill="#081920"/>
<path fill-rule="evenodd" clip-rule="evenodd" d="M249.431 178.14C248.641 177.28 248.303 176.222 248.107 175.102C248.548 176.114 248.99 177.127 249.431 178.14Z" fill="#081920"/>
<path fill-rule="evenodd" clip-rule="evenodd" d="M258.987 232.164C259.017 231.102 259.046 230.04 259.075 228.981C259.046 230.043 259.017 231.104 258.987 232.164Z" fill="#081920"/>
<path fill-rule="evenodd" clip-rule="evenodd" d="M134.154 59.8738C134.861 59.9617 135.568 60.0495 136.276 60.1374C135.718 60.3988 134.403 60.7462 134.154 59.8738Z" fill="#081920"/>
<path fill-rule="evenodd" clip-rule="evenodd" d="M275.152 243.309C275.888 243.197 276.626 242.944 277.349 243.352C276.616 243.337 275.884 243.323 275.152 243.309Z" fill="#081920"/>
<path fill-rule="evenodd" clip-rule="evenodd" d="M254.132 219.321C254.142 220.107 254.152 220.893 254.16 221.677C254.15 220.89 254.141 220.105 254.132 219.321Z" fill="#081920"/>
<path fill-rule="evenodd" clip-rule="evenodd" d="M269.332 207.083C269.286 207.922 269.239 208.761 269.193 209.598C269.24 208.758 269.286 207.921 269.332 207.083Z" fill="#081920"/>
<path fill-rule="evenodd" clip-rule="evenodd" d="M259.324 210.366C259.284 209.636 259.244 208.906 259.205 208.178C259.245 208.908 259.284 209.637 259.324 210.366Z" fill="#081920"/>
<path fill-rule="evenodd" clip-rule="evenodd" d="M281.185 216.803C281.145 217.453 281.106 218.103 281.066 218.751C281.106 218.101 281.145 217.452 281.185 216.803Z" fill="#081920"/>
<path fill-rule="evenodd" clip-rule="evenodd" d="M149.099 233.223C148.384 233.583 147.668 233.619 146.955 233.218C147.67 233.22 148.385 233.221 149.099 233.223Z" fill="#081920"/>
<path fill-rule="evenodd" clip-rule="evenodd" d="M222.347 36.8304C222.357 37.473 222.367 38.1156 222.377 38.7555C222.367 38.1122 222.357 37.4715 222.347 36.8304Z" fill="#081920"/>
<path fill-rule="evenodd" clip-rule="evenodd" d="M151.281 54.3629C150.548 54.4185 149.815 54.4736 149.083 54.5292C149.815 54.4736 150.548 54.4185 151.281 54.3629Z" fill="#081920"/>
<path fill-rule="evenodd" clip-rule="evenodd" d="M302.667 56.8358C302.664 56.2016 302.66 55.5674 302.657 54.9343C302.993 55.5674 303 56.2009 302.667 56.8358Z" fill="#081920"/>
<path fill-rule="evenodd" clip-rule="evenodd" d="M129.316 57.991C129.282 57.3172 129.249 56.6438 129.216 55.9712C129.25 56.6454 129.283 57.318 129.316 57.991Z" fill="#081920"/>
<path fill-rule="evenodd" clip-rule="evenodd" d="M309.403 257.046C309.898 257.05 310.394 257.053 310.884 257.057C310.387 257.053 309.895 257.05 309.403 257.046Z" fill="#081920"/>
<path fill-rule="evenodd" clip-rule="evenodd" d="M114.581 0.113525C113.93 0.169071 113.279 0.224618 112.628 0.279783C113.279 0.224618 113.93 0.169071 114.581 0.113525Z" fill="#081920"/>
<path fill-rule="evenodd" clip-rule="evenodd" d="M178.786 248.663C179.205 248.663 179.625 248.663 180.04 248.663C179.618 248.663 179.202 248.663 178.786 248.663Z" fill="#081920"/>
<path fill-rule="evenodd" clip-rule="evenodd" d="M243.793 72.5866C243.157 72.5231 242.52 72.4592 241.884 72.3953C242.521 72.4592 243.157 72.5231 243.793 72.5866Z" fill="#081920"/>
<path fill-rule="evenodd" clip-rule="evenodd" d="M272.725 247.553C272.764 247.028 272.803 246.504 272.842 245.981C272.803 246.507 272.764 247.03 272.725 247.553Z" fill="#081920"/>
<path fill-rule="evenodd" clip-rule="evenodd" d="M203.827 65.8693C203.2 65.8636 202.573 65.8583 201.947 65.853C202.577 65.4885 203.202 65.5927 203.827 65.8693Z" fill="#081920"/>
<path fill-rule="evenodd" clip-rule="evenodd" d="M120.217 0.288794C119.586 0.268631 118.918 0.597721 118.336 0.0970459C118.963 0.160962 119.59 0.224878 120.217 0.288794Z" fill="#081920"/>
<path fill-rule="evenodd" clip-rule="evenodd" d="M103.159 62.2083C102.554 62.2638 101.948 62.3193 101.343 62.3745C101.949 62.319 102.554 62.2638 103.159 62.2083Z" fill="#081920"/>
<path fill-rule="evenodd" clip-rule="evenodd" d="M141.296 232.679C140.659 232.745 140.021 232.812 139.384 232.878C140.021 232.812 140.659 232.745 141.296 232.679Z" fill="#081920"/>
<path fill-rule="evenodd" clip-rule="evenodd" d="M157.169 53.9787C156.547 53.992 155.925 54.0053 155.304 54.0187C155.92 53.7717 156.538 53.5389 157.169 53.9787Z" fill="#081920"/>
<path fill-rule="evenodd" clip-rule="evenodd" d="M258.965 224.078C258.961 223.539 258.958 223 258.954 222.462C258.958 223.001 258.961 223.539 258.965 224.078Z" fill="#081920"/>
<path fill-rule="evenodd" clip-rule="evenodd" d="M330.872 178.363C330.805 179.014 330.737 179.666 330.671 180.317C330.737 179.666 330.805 179.014 330.872 178.363Z" fill="#081920"/>
<path fill-rule="evenodd" clip-rule="evenodd" d="M250.184 220.364C250.138 219.81 250.092 219.255 250.046 218.702C250.092 219.257 250.138 219.811 250.184 220.364Z" fill="#081920"/>
<path fill-rule="evenodd" clip-rule="evenodd" d="M41.0145 215.269C40.9008 215.822 40.4975 215.931 39.8047 215.595L41.0145 215.269Z" fill="#081920"/>
<path fill-rule="evenodd" clip-rule="evenodd" d="M273.398 215.515C273.361 215.032 273.324 214.55 273.288 214.07C273.325 214.552 273.361 215.033 273.398 215.515Z" fill="#081920"/>
<path fill-rule="evenodd" clip-rule="evenodd" d="M143.107 55.1403C142.584 55.2114 142.06 55.2822 141.537 55.3533C142.061 55.2822 142.584 55.2114 143.107 55.1403Z" fill="#081920"/>
<path fill-rule="evenodd" clip-rule="evenodd" d="M253.816 211.406C253.815 211.879 253.815 212.353 253.813 212.824C253.815 212.35 253.815 211.878 253.816 211.406Z" fill="#081920"/>
<path fill-rule="evenodd" clip-rule="evenodd" d="M222.253 41.5006C222.254 41.9484 222.254 42.3958 222.255 42.8413C222.254 42.3932 222.254 41.9469 222.253 41.5006Z" fill="#081920"/>
<path fill-rule="evenodd" clip-rule="evenodd" d="M31.3936 146.379C31.3419 146.851 31.2901 147.323 31.2388 147.793C31.2905 147.32 31.3419 146.85 31.3936 146.379Z" fill="#081920"/>
<path fill-rule="evenodd" clip-rule="evenodd" d="M344.862 178.813C344.834 178.369 344.806 177.924 344.778 177.482C344.806 177.927 344.834 178.37 344.862 178.813Z" fill="#081920"/>
<path fill-rule="evenodd" clip-rule="evenodd" d="M74.5994 237.461C74.0588 237.452 73.5182 237.444 72.9775 237.435C73.5246 237.06 74.0637 237.14 74.5994 237.461Z" fill="#081920"/>
<path fill-rule="evenodd" clip-rule="evenodd" d="M137.557 29.8461C137.548 29.4006 137.539 28.9551 137.53 28.5111C137.808 28.9521 137.897 29.3949 137.557 29.8461Z" fill="#081920"/>
<path fill-rule="evenodd" clip-rule="evenodd" d="M94.3906 24.1957C94.4283 23.7563 94.466 23.3169 94.5032 22.8801C94.4656 23.3203 94.4283 23.7578 94.3906 24.1957Z" fill="#081920"/>
<path fill-rule="evenodd" clip-rule="evenodd" d="M273.079 178.019C273.061 177.535 273.042 177.05 273.024 176.567C273.043 177.052 273.061 177.536 273.079 178.019Z" fill="#081920"/>
<path fill-rule="evenodd" clip-rule="evenodd" d="M269.599 203.04C269.586 203.496 269.573 203.953 269.559 204.407C269.572 203.95 269.586 203.495 269.599 203.04Z" fill="#081920"/>
<path fill-rule="evenodd" clip-rule="evenodd" d="M207.373 247.09C207.712 247.089 208.051 247.088 208.385 247.089C208.046 247.09 207.709 247.09 207.373 247.09Z" fill="#081920"/>
<path fill-rule="evenodd" clip-rule="evenodd" d="M42.5254 247.321C42.8636 247.33 43.2015 247.339 43.5355 247.349C43.1961 247.34 42.8606 247.331 42.5254 247.321Z" fill="#081920"/>
<path fill-rule="evenodd" clip-rule="evenodd" d="M247.011 207.233C243.713 204.685 240.839 200.875 240.169 196.796C241.587 198.398 242.779 200.186 244.198 201.787C244.761 202.422 245.453 202.97 245.994 203.618C247.228 205.095 247.011 205.161 247.011 207.233Z" fill="#081920"/>
<path fill-rule="evenodd" clip-rule="evenodd" d="M235.427 190.011C233.844 186.365 232.47 181.943 232.746 177.921C233.838 181.573 236.371 186.16 235.427 190.011Z" fill="#081920"/>
<path fill-rule="evenodd" clip-rule="evenodd" d="M240.736 211.448C240.71 212.506 240.683 213.564 240.657 214.62C240.685 213.561 240.71 212.504 240.736 211.448Z" fill="#081920"/>
<path fill-rule="evenodd" clip-rule="evenodd" d="M31.4502 240.215C32.5318 240.279 33.6138 240.344 34.6955 240.408C33.6089 240.422 32.5079 240.686 31.4502 240.215Z" fill="#081920"/>
<path fill-rule="evenodd" clip-rule="evenodd" d="M240.73 207.951C240.734 208.854 240.738 209.756 240.742 210.657C240.738 209.753 240.734 208.852 240.73 207.951Z" fill="#081920"/>
<path fill-rule="evenodd" clip-rule="evenodd" d="M196.288 103.309C195.679 103.278 195.07 103.246 194.466 103.214C195.076 103.246 195.682 103.278 196.288 103.309Z" fill="#081920"/>
<path fill-rule="evenodd" clip-rule="evenodd" d="M206.194 80.8614C206.192 80.129 206.19 79.3966 206.188 78.6658C206.189 79.3985 206.192 80.1301 206.194 80.8614Z" fill="#081920"/>
<path fill-rule="evenodd" clip-rule="evenodd" d="M193.117 99.2335C193.089 98.7183 192.815 98.4589 192.293 98.4554C193.34 97.8901 193.614 98.1496 193.117 99.2335Z" fill="#081920"/>
<path fill-rule="evenodd" clip-rule="evenodd" d="M224.142 139.977C224.183 139.326 224.224 138.674 224.265 138.024C224.224 138.676 224.183 139.327 224.142 139.977Z" fill="#081920"/>
<path fill-rule="evenodd" clip-rule="evenodd" d="M46.8076 240.675C47.5373 240.625 48.267 240.574 48.9967 240.523C48.2667 240.574 47.5373 240.625 46.8076 240.675Z" fill="#081920"/>
<path fill-rule="evenodd" clip-rule="evenodd" d="M200.068 152.196L202.239 152.181C201.515 152.186 200.791 152.191 200.068 152.196Z" fill="#081920"/>
<path fill-rule="evenodd" clip-rule="evenodd" d="M220.793 72.7783C220.288 72.7825 219.783 72.7867 219.283 72.7905C219.789 72.7863 220.291 72.7825 220.793 72.7783Z" fill="#081920"/>
<path fill-rule="evenodd" clip-rule="evenodd" d="M326.051 249.126C326.684 249.123 327.317 249.12 327.95 249.117C327.318 249.516 326.685 249.505 326.051 249.126Z" fill="#081920"/>
<path fill-rule="evenodd" clip-rule="evenodd" d="M60.2974 161.507C59.8683 161.52 59.4391 161.532 59.0142 161.544C59.4448 161.532 59.8709 161.52 60.2974 161.507Z" fill="#081920"/>
<path fill-rule="evenodd" clip-rule="evenodd" d="M288.25 66.6873C288.657 67.0791 288.123 67.98 287.639 67.6696C287.843 67.342 288.047 67.0148 288.25 66.6873Z" fill="#081920"/>
<path fill-rule="evenodd" clip-rule="evenodd" d="M89.8354 201.176C89.8533 200.622 89.8716 200.067 89.8895 199.514C89.8712 200.069 89.8533 200.623 89.8354 201.176Z" fill="#081920"/>
<path fill-rule="evenodd" clip-rule="evenodd" d="M234.93 201.482C234.959 200.904 234.988 200.326 235.017 199.748C234.988 200.327 234.959 200.904 234.93 201.482Z" fill="#081920"/>
<path fill-rule="evenodd" clip-rule="evenodd" d="M336.187 141.211C336.211 141.79 336.235 142.37 336.259 142.947C336.235 142.367 336.211 141.789 336.187 141.211Z" fill="#081920"/>
<path fill-rule="evenodd" clip-rule="evenodd" d="M140.659 206.789C141.307 206.844 141.955 206.9 142.603 206.955C141.955 206.9 141.307 206.844 140.659 206.789Z" fill="#081920"/>
<path fill-rule="evenodd" clip-rule="evenodd" d="M229.557 162.376C229.588 161.801 229.62 161.226 229.652 160.652C229.62 161.227 229.588 161.802 229.557 162.376Z" fill="#081920"/>
<path fill-rule="evenodd" clip-rule="evenodd" d="M116.927 173.319C117.573 173.378 118.219 173.438 118.865 173.497C118.219 173.437 117.573 173.378 116.927 173.319Z" fill="#081920"/>
<path fill-rule="evenodd" clip-rule="evenodd" d="M174.092 223.617C173.676 223.617 173.26 223.617 172.848 223.617C173.266 223.617 173.679 223.617 174.092 223.617Z" fill="#081920"/>
<path fill-rule="evenodd" clip-rule="evenodd" d="M210.788 83.0247C210.764 83.5622 210.739 84.0994 210.715 84.6343C210.74 84.0964 210.764 83.5603 210.788 83.0247Z" fill="#081920"/>
<path fill-rule="evenodd" clip-rule="evenodd" d="M220.005 213.415C220.645 212.961 221.267 213.26 221.891 213.457C221.262 213.443 220.634 213.429 220.005 213.415Z" fill="#081920"/>
<path fill-rule="evenodd" clip-rule="evenodd" d="M145.242 59.6033C144.821 59.5862 144.401 59.5687 143.985 59.5497C144.407 59.5668 144.825 59.5851 145.242 59.6033Z" fill="#081920"/>
<path fill-rule="evenodd" clip-rule="evenodd" d="M247.189 223.3C247.151 222.765 247.113 222.23 247.075 221.697C247.113 222.233 247.151 222.766 247.189 223.3Z" fill="#081920"/>
<path fill-rule="evenodd" clip-rule="evenodd" d="M212.756 162.887C212.41 162.89 212.063 162.892 211.721 162.895C212.069 162.893 212.413 162.89 212.756 162.887Z" fill="#081920"/>
<path fill-rule="evenodd" clip-rule="evenodd" d="M227.377 182.327C227.377 181.88 227.378 181.434 227.378 180.99C227.378 181.437 227.377 181.882 227.377 182.327Z" fill="#081920"/>
<path fill-rule="evenodd" clip-rule="evenodd" d="M205.2 215.064C205.72 214.997 206.238 214.929 206.757 214.862C206.238 214.929 205.719 214.997 205.2 215.064Z" fill="#081920"/>
<path fill-rule="evenodd" clip-rule="evenodd" d="M182.756 150.121C183.319 150.117 183.881 150.113 184.443 150.11C183.883 150.44 183.32 150.378 182.756 150.121Z" fill="#081920"/>
<path fill-rule="evenodd" clip-rule="evenodd" d="M211.885 95.4788C211.56 95.4758 211.235 95.4728 210.915 95.4701C211.241 95.4728 211.563 95.4758 211.885 95.4788Z" fill="#081920"/>
<path fill-rule="evenodd" clip-rule="evenodd" d="M115.859 178.284C115.524 178.279 115.189 178.275 114.858 178.27C115.195 178.275 115.527 178.279 115.859 178.284Z" fill="#081920"/>
<path fill-rule="evenodd" clip-rule="evenodd" d="M51.1211 156.309C51.6823 156.315 52.2434 156.321 52.8046 156.327C52.24 156.644 51.6788 156.652 51.1211 156.309Z" fill="#081920"/>
<path fill-rule="evenodd" clip-rule="evenodd" d="M336.241 157.238C336.205 157.666 336.17 158.094 336.136 158.52C336.172 158.091 336.206 157.664 336.241 157.238Z" fill="#081920"/>
<path fill-rule="evenodd" clip-rule="evenodd" d="M193.378 226.049C193.425 225.581 193.473 225.114 193.521 224.648C193.473 225.116 193.425 225.582 193.378 226.049Z" fill="#081920"/>
<path fill-rule="evenodd" clip-rule="evenodd" d="M102.639 170.343C103.206 170.351 103.773 170.36 104.341 170.368C103.768 170.762 103.204 170.514 102.639 170.343Z" fill="#081920"/>
<path fill-rule="evenodd" clip-rule="evenodd" d="M231.917 88.2658C232.469 88.2034 233.02 88.141 233.572 88.0786C233.02 88.141 232.469 88.2034 231.917 88.2658Z" fill="#081920"/>
<path fill-rule="evenodd" clip-rule="evenodd" d="M185.828 238.106C185.878 238.597 185.928 239.089 185.977 239.578C185.927 239.087 185.878 238.597 185.828 238.106Z" fill="#081920"/>
<path fill-rule="evenodd" clip-rule="evenodd" d="M234.939 205.803C234.939 205.345 234.937 204.887 234.937 204.43C234.938 204.89 234.939 205.346 234.939 205.803Z" fill="#081920"/>
<path fill-rule="evenodd" clip-rule="evenodd" d="M34.9634 240.473C35.4972 240.543 36.0309 240.613 36.5643 240.684C36.0306 240.613 35.4968 240.543 34.9634 240.473Z" fill="#081920"/>
<path fill-rule="evenodd" clip-rule="evenodd" d="M44.9775 240.689C45.5045 240.258 46.0394 240.39 46.5762 240.666C46.0432 240.673 45.5102 240.681 44.9775 240.689Z" fill="#081920"/>
<path fill-rule="evenodd" clip-rule="evenodd" d="M141.266 177.565C141.788 177.501 142.31 177.437 142.831 177.373C142.309 177.437 141.787 177.501 141.266 177.565Z" fill="#081920"/>
<path fill-rule="evenodd" clip-rule="evenodd" d="M199.264 243.115C199.796 243.044 200.327 242.973 200.859 242.901C200.327 242.973 199.796 243.044 199.264 243.115Z" fill="#081920"/>
<path fill-rule="evenodd" clip-rule="evenodd" d="M180.66 243.941C181.203 243.872 181.745 243.802 182.287 243.732C181.745 243.802 181.203 243.872 180.66 243.941Z" fill="#081920"/>
<path fill-rule="evenodd" clip-rule="evenodd" d="M210.524 86.2737C210.5 86.7116 210.476 87.1499 210.453 87.5851C210.477 87.1461 210.501 86.7097 210.524 86.2737Z" fill="#081920"/>
<path fill-rule="evenodd" clip-rule="evenodd" d="M82.7666 190.696C82.8149 190.232 82.8632 189.766 82.9116 189.303C82.8629 189.769 82.8149 190.233 82.7666 190.696Z" fill="#081920"/>
<path fill-rule="evenodd" clip-rule="evenodd" d="M206.336 74.9465C206.35 74.4904 206.364 74.0342 206.379 73.5803C206.365 74.0372 206.35 74.4919 206.336 74.9465Z" fill="#081920"/>
<path fill-rule="evenodd" clip-rule="evenodd" d="M102.735 185.525C102.783 185.991 102.831 186.456 102.879 186.92C102.831 186.454 102.783 185.99 102.735 185.525Z" fill="#081920"/>
<path fill-rule="evenodd" clip-rule="evenodd" d="M104.533 170.348C105.083 170.409 105.633 170.469 106.183 170.53C105.633 170.469 105.082 170.409 104.533 170.348Z" fill="#081920"/>
<path fill-rule="evenodd" clip-rule="evenodd" d="M192.11 238.231C192.423 239.151 192.308 241.29 191.418 241.938C189.573 243.283 189.383 240.827 189.016 239.499C188 235.819 186.364 231.708 185.947 227.924C185.819 226.763 185.75 224.589 187.285 224.197C188.768 223.82 189.518 226.168 190.03 227.374C191.448 230.721 192.27 234.603 192.11 238.231Z" fill="#081920"/>
<path fill-rule="evenodd" clip-rule="evenodd" d="M192.11 238.231C192.131 237.755 192.152 237.28 192.173 236.807C192.152 237.283 192.131 237.757 192.11 238.231Z" fill="#081920"/>
</svg>
