<svg width="286" height="290" viewBox="0 0 286 290" fill="none" xmlns="http://www.w3.org/2000/svg">
<path fill-rule="evenodd" clip-rule="evenodd" d="M54.6577 113.389C54.3942 110.032 53.1619 104.658 48.7756 104.909C45.1157 105.119 41.9737 110.85 42.6514 114.197C43.1432 116.626 43.9337 115.246 44.6032 114.078C44.6907 113.925 44.7762 113.776 44.8588 113.64C45.6996 112.247 47.2219 110.562 49.0291 110.919C50.5848 111.227 51.2427 112.765 51.8407 114.163C52.015 114.569 52.1839 114.964 52.3681 115.314C53.7846 117.996 54.2761 115.401 54.6053 113.662C54.623 113.568 54.6408 113.477 54.6577 113.389ZM36.452 123.23C33.3365 124.36 36.7271 128.151 38.2015 128.973C37.9157 129.797 36.6127 130.543 35.6323 131.104L35.6319 131.104C35.3642 131.258 35.121 131.397 34.9285 131.52C33.7689 132.265 32.2875 132.719 30.9267 133.136L30.7644 133.186L30.6289 133.227C26.7894 134.408 23.0577 134.58 19.0951 134.001C15.2873 133.445 10.927 132.205 8.47059 129.084C7.40798 127.735 6.43127 125.68 7.45052 123.99C7.92628 123.201 8.76423 122.792 9.61704 122.376C10.4104 121.989 11.2165 121.597 11.7547 120.885C12.0062 120.553 12.1899 120.163 12.3708 119.779C12.5364 119.428 12.6996 119.081 12.9114 118.787C12.9858 118.683 13.0494 118.592 13.1051 118.513C13.3071 118.223 13.4062 118.082 13.5412 118.023C13.6709 117.966 13.8336 117.985 14.1529 118.021C14.2978 118.038 14.4754 118.059 14.6964 118.078C16.8893 118.263 19.2276 118.405 21.3867 117.877C22.3126 117.65 23.2245 117.311 24.1318 116.974C24.8153 116.72 25.4959 116.467 26.1782 116.264C27.8636 115.762 29.4618 114.705 30.7652 113.567C33.7718 110.94 36.7151 108.085 39.4991 105.222C41.0275 103.65 42.2524 101.83 43.4794 100.006C44.4739 98.5277 45.4696 97.0476 46.6297 95.6963C47.2215 95.007 47.8087 94.2789 48.4047 93.5405C50.7645 90.6157 53.2564 87.5266 56.6921 86.0237C58.6397 85.1722 59.025 85.7008 59.7573 86.7052H59.7577C59.9547 86.9757 60.1773 87.2809 60.4626 87.603C61.6004 88.8874 63.1784 88.6689 64.716 88.4554C65.0439 88.41 65.3697 88.365 65.689 88.3344C65.5345 88.6863 65.366 89.0431 65.1955 89.4044C64.5161 90.8445 63.8016 92.3585 63.7686 93.9279C63.7579 94.4495 63.8962 94.9409 64.0333 95.427C64.1638 95.8904 64.2927 96.3484 64.2898 96.8225C64.2856 97.4639 63.9379 98.0763 63.5968 98.678C63.425 98.9804 63.2548 99.2806 63.1309 99.5796C61.4654 103.593 61.0627 109.032 61.0003 113.342C60.8719 122.258 63.541 131.755 69.2179 138.746C70.4156 140.222 71.7624 141.584 73.2677 142.749C73.5477 142.965 74.1734 143.283 74.8825 143.644H74.8829C76.2457 144.337 77.9167 145.188 78.0327 145.772C78.3111 147.171 75.8022 147.32 74.2882 147.41H74.2878C73.9408 147.43 73.6464 147.448 73.4494 147.476C72.4264 147.626 71.4088 147.805 70.3917 147.984H70.3912H70.3908V147.984H70.3904C69.1989 148.193 68.0071 148.403 66.8069 148.565C57.8914 149.764 49.0902 150.721 40.102 150.237C39.7402 150.217 39.2637 150.271 38.759 150.327C37.876 150.426 36.9059 150.534 36.3079 150.281C35.427 149.908 35.4885 149.24 35.5629 148.433C35.5819 148.228 35.6017 148.015 35.6071 147.794C35.6575 145.738 35.453 143.705 35.2482 141.669C35.1751 140.94 35.1016 140.211 35.0396 139.48C34.8901 137.709 35.1784 137.521 36.1142 136.911C36.3649 136.748 36.6623 136.554 37.0096 136.292C38.7115 135.007 40.3754 132.622 40.9309 130.577C41.953 131.402 41.8374 131.98 41.6875 132.727C41.6053 133.137 41.5132 133.598 41.5929 134.178C41.8679 136.176 43.2184 135.848 44.1092 134.512C45.4911 132.438 45.3688 129.159 44.0774 127.087C42.9206 125.231 38.7933 122.381 36.452 123.23ZM107.712 196.862H107.712C108.561 197.545 109.409 198.227 110.272 198.893C111.143 199.564 111.801 200.23 112.448 201.104C112.494 201.167 112.539 201.226 112.58 201.282C113.263 202.2 113.34 202.303 112.814 203.36C112.237 204.519 111.391 205.44 110.548 206.359C109.933 207.029 109.318 207.699 108.811 208.458C108.368 209.122 107.975 209.81 107.585 210.496L107.585 210.496C106.767 211.932 105.956 213.358 104.695 214.516C103.862 212.638 102.786 215.383 104.169 215.093C103.768 216.283 103.058 217.362 102.347 218.442C101.92 219.091 101.492 219.74 101.132 220.414C99.9994 222.533 98.7609 224.457 97.4199 226.449L97.3786 226.299C97.3419 226.167 97.3051 226.034 97.2688 225.902L97.173 225.557C97.1189 225.361 97.0643 225.164 97.0098 224.968C96.0149 225.206 96.3871 225.819 96.6617 226.273C96.7472 226.413 96.8232 226.539 96.8463 226.633C96.8702 226.733 96.9124 226.806 96.9545 226.879C97.0532 227.051 97.1507 227.221 97.009 227.734C96.9012 228.123 96.6059 228.47 96.3239 228.802C96.2078 228.938 96.0938 229.072 95.9964 229.205C95.3414 230.099 94.7256 231.016 94.1082 231.935C94.0177 232.07 93.9273 232.204 93.8369 232.339C93.3285 233.094 93.0609 233.753 92.7792 234.446C92.6743 234.705 92.5673 234.969 92.4447 235.245C92.1977 235.801 91.9631 235.95 91.6683 236.138C91.4841 236.255 91.2759 236.387 91.0269 236.644C90.6044 237.079 90.1832 237.717 89.7801 238.328C89.5451 238.684 89.3159 239.031 89.0966 239.323C87.3232 241.682 85.7299 244.382 84.5195 247.066C83.9929 248.233 83.2632 249.242 82.5322 250.252C81.662 251.455 80.7906 252.659 80.2612 254.134C79.9828 254.908 79.8032 255.704 79.6235 256.5C79.4819 257.129 79.3398 257.757 79.1494 258.375C78.9937 258.879 78.7996 259.37 78.6055 259.861C78.2966 260.641 77.9881 261.421 77.8349 262.254C77.7118 262.92 77.7085 263.649 77.7052 264.338C77.7031 264.813 77.7011 265.268 77.6602 265.671C77.6354 265.915 77.5871 266.198 77.5351 266.505L77.5347 266.505C77.4137 267.216 77.2703 268.059 77.3401 268.853C77.552 271.249 78.5456 273.328 79.7321 275.324C74.32 277.158 68.1624 277.673 62.4842 277.54C59.5822 277.472 56.275 277.444 53.4353 278.116C53.0937 278.196 52.7687 278.282 52.4524 278.364C51.2485 278.678 50.1731 278.959 48.8069 278.852C47.6634 278.763 46.5206 278.661 45.3775 278.559C44.7981 278.508 44.2191 278.457 43.6397 278.407C44.0791 277.521 45.3882 276.435 46.327 275.656C46.4624 275.544 46.59 275.438 46.7065 275.34C46.963 275.123 47.3004 274.986 47.6262 274.854C47.976 274.712 48.3126 274.575 48.5232 274.351C48.8734 273.978 49.0411 273.187 49.1732 272.563C49.217 272.356 49.2567 272.168 49.298 272.02C50.5753 267.437 51.5186 262.811 52.3186 258.123C53.7322 249.838 54.2802 241.404 54.8022 233.067C54.8192 232.795 54.889 232.497 54.9588 232.199C55.0422 231.841 55.126 231.484 55.1178 231.173C55.1079 230.794 55.0711 230.483 55.036 230.188C54.986 229.766 54.9394 229.375 54.9807 228.86C55.0021 228.593 55.1669 228.282 55.3288 227.977C55.5031 227.649 55.6732 227.328 55.6584 227.075C55.6472 226.882 55.4932 226.841 55.3267 226.797C55.1211 226.742 54.8964 226.682 54.8968 226.325C54.8981 225.77 55.3714 225.07 55.8124 224.418C56.1102 223.977 56.3931 223.558 56.505 223.222C56.5674 223.034 56.4596 222.808 56.3505 222.58C56.2601 222.392 56.1692 222.202 56.175 222.032C56.1709 222.148 56.4848 220.734 56.4971 220.679C56.5376 220.503 56.6276 220.377 56.7173 220.252C56.842 220.078 56.9659 219.905 56.9547 219.597C56.9485 219.426 56.8507 219.236 56.7499 219.04C56.5822 218.713 56.4059 218.37 56.6314 218.075C56.7516 217.917 57.0262 217.96 57.3 218.002C57.5874 218.047 57.8736 218.091 57.9773 217.903C58.109 217.663 57.8806 217.131 57.6395 216.569C57.4045 216.02 57.1571 215.443 57.2195 215.082C57.3289 214.452 57.6176 213.819 57.9083 213.18C58.1685 212.609 58.4303 212.034 58.567 211.456C58.6092 211.277 58.6224 211.064 58.6356 210.842C58.6633 210.392 58.6926 209.909 58.9767 209.606C59.3794 209.177 59.7511 209.254 60.1888 209.344C60.5027 209.409 60.85 209.481 61.2663 209.378C60.2491 208.515 60.0521 207.758 60.3524 206.498C60.5874 205.514 61.0553 204.422 62.1311 205.404C61.9705 203.936 61.9762 203.707 63.0727 202.594C63.2528 202.411 63.4378 202.186 63.6282 201.955C63.9999 201.502 64.393 201.024 64.8134 200.783C65.0059 200.581 65.1988 200.378 65.3912 200.176C65.6518 200.448 65.962 200.602 66.3208 200.637C66.9036 200.606 67.431 200.559 67.9224 200.514C70.0241 200.324 71.4667 200.194 73.7558 201.688C74.0747 201.896 74.3931 202.091 74.7082 202.283C75.5705 202.808 76.408 203.319 77.158 204.061C77.64 204.537 78.0823 205.049 78.525 205.562C79.1309 206.263 79.7371 206.965 80.4441 207.575C80.8352 207.912 81.2247 208.232 81.61 208.549C82.5727 209.34 83.5102 210.111 84.3811 211.078C84.541 211.255 84.7 211.436 84.8594 211.618C85.7068 212.584 86.5741 213.572 87.7115 214.148C87.8064 212.657 87.0631 211.311 86.3408 210.003C86.2788 209.891 86.2169 209.779 86.1562 209.668C86.0632 209.498 85.3896 209.043 85.4045 209.094C85.3636 208.952 85.4206 208.82 85.476 208.692C85.5313 208.564 85.5846 208.44 85.5367 208.314C85.9356 208.674 86.3387 209.094 86.7504 209.523C87.5479 210.354 88.3759 211.215 89.261 211.739C91.2912 212.939 90.6028 210.855 90.1584 209.509V209.509C90.1233 209.404 90.0903 209.303 90.0597 209.208C88.8686 205.505 86.7108 201.956 84.216 198.966C79.8507 193.737 72.5689 187.9 65.6002 191.191C58.6934 194.453 55.055 199.931 53.0731 207.219C50.7736 215.678 49.7176 223.761 49.4991 232.523C49.3735 237.54 48.8619 242.515 48.3345 247.503C48.1833 248.935 48.0582 250.401 47.9318 251.879V251.88C47.6291 255.43 47.3202 259.05 46.6268 262.424C46.0102 261.527 45.6468 260.85 45.3391 259.842C45.285 259.665 45.2838 259.491 45.2825 259.316C45.2804 259.088 45.2788 258.861 45.1578 258.633C45.1074 258.539 44.9517 258.499 44.7997 258.459C44.6548 258.422 44.5127 258.385 44.4673 258.303L44.3789 258.143C43.6215 256.779 42.6138 254.963 42.2756 253.435C42.2025 253.104 42.1847 252.828 42.1678 252.569C42.1418 252.17 42.1182 251.809 41.9014 251.347C41.7461 251.018 41.6263 250.985 41.5297 250.958C41.417 250.927 41.336 250.904 41.2671 250.429C41.2617 250.392 41.31 250.348 41.3748 250.288C41.5235 250.151 41.7606 249.933 41.6396 249.535C41.3265 248.507 41.0791 248.906 40.8867 249.217C40.809 249.342 40.7401 249.453 40.6798 249.451C40.4167 249.439 40.6724 248.352 40.8983 247.391C41.0453 246.765 41.1799 246.194 41.1493 246.01C41.1002 245.718 41.0036 245.673 40.9057 245.628C40.8256 245.591 40.7446 245.554 40.6897 245.379C40.5807 245.027 40.4469 244.518 40.3647 244.03C40.2606 243.409 40.102 242.963 39.9504 242.537C39.7386 241.941 39.5408 241.385 39.5259 240.446C39.5073 239.264 39.2339 238.338 38.9498 237.377C38.7664 236.757 38.5789 236.122 38.4526 235.394C38.422 235.221 38.5033 235.037 38.5818 234.859C38.6582 234.685 38.7321 234.517 38.6987 234.369C38.6272 234.05 38.474 233.76 38.3179 233.463C38.1692 233.18 38.0177 232.893 37.9322 232.571C37.7236 231.789 37.8706 231.067 38.0173 230.347C38.1284 229.8 38.2394 229.254 38.1953 228.683C38.2122 228.9 37.7839 227.707 37.7571 227.602C37.6737 227.274 37.6547 226.886 37.6357 226.494C37.6191 226.162 37.6026 225.827 37.5469 225.524C37.5188 225.373 37.475 225.211 37.43 225.042C37.2892 224.518 37.1335 223.938 37.392 223.5C37.5072 223.304 37.6931 223.232 37.8884 223.155C38.0895 223.076 38.3006 222.994 38.4554 222.77C38.1986 222.687 38.0127 222.644 37.874 222.612C37.7079 222.573 37.6096 222.551 37.5378 222.494C37.4341 222.412 37.3854 222.26 37.2669 221.886C37.2375 221.794 37.2037 221.688 37.1636 221.565C36.7767 220.383 36.7391 219.393 38.021 220.174C37.9177 219.921 37.7868 219.649 37.6514 219.369C37.3614 218.767 37.0525 218.127 36.9629 217.545C36.8997 217.136 36.9489 216.733 36.998 216.331C37.0422 215.966 37.0868 215.602 37.0476 215.233C36.9988 214.771 36.9295 214.349 36.8634 213.951C36.6329 212.554 36.4492 211.439 37.3693 209.87C36.2625 209.304 36.2823 207.74 36.3001 206.341C36.3071 205.77 36.3141 205.227 36.2443 204.79C36.1968 204.493 36.1373 204.199 36.0783 203.91V203.909C35.8132 202.601 35.5678 201.391 36.5743 200.511C35.3552 199.635 35.5744 197.222 35.7417 195.382C35.7884 194.87 35.8309 194.402 35.8371 194.025C35.8507 193.195 35.8255 192.36 35.7991 191.491V191.49C35.7727 190.622 35.745 189.72 35.7549 188.756C35.7636 187.938 35.5926 187.312 35.3969 186.595C35.332 186.357 35.2643 186.109 35.1995 185.84C34.9996 185.013 35.04 184.3 35.0809 183.575C35.109 183.084 35.1371 182.586 35.0908 182.043C35.0487 181.551 34.9401 181.058 34.8302 180.558C34.7018 179.974 34.5713 179.38 34.542 178.768C34.5213 178.339 34.5213 177.891 34.5217 177.439C34.5217 176.668 34.5222 175.886 34.4189 175.168C34.3722 174.843 34.3144 174.549 34.2583 174.262C34.1517 173.718 34.0497 173.199 34.034 172.533C34.0315 172.418 34.0088 172.268 33.9849 172.112C33.9456 171.856 33.9035 171.582 33.9419 171.408C33.9419 171.409 33.946 171.4 33.9539 171.383V171.382C34.022 171.232 34.3619 170.481 34.3594 170.87C34.364 170.244 34.2455 169.624 34.1236 168.985C33.9304 167.976 33.7284 166.919 33.9873 165.716C34.2913 164.308 34.5523 164.33 35.6946 164.425H35.695H35.6959C35.8627 164.439 36.0481 164.454 36.2555 164.467L36.509 164.482C37.7088 164.556 38.9081 164.631 40.1103 164.635C40.5815 164.637 41.348 164.546 42.2322 164.441C44.4759 164.175 47.4788 163.818 48.3444 164.661C49.0816 165.379 48.9585 168.075 48.8709 169.998C48.8396 170.681 48.8131 171.266 48.8309 171.63C48.8916 172.88 48.2585 173.651 47.5775 174.48C47.0249 175.152 46.4409 175.863 46.1717 176.899C45.026 181.308 46.9188 187.127 52.0844 187.504C56.9027 187.856 61.5248 183.894 60.8632 179.024C60.5977 177.07 59.6974 174.943 57.9979 173.8C57.2252 173.28 56.0441 173.188 54.8902 173.099C53.5893 172.999 52.3231 172.901 51.7164 172.194C51.3228 171.735 51.3344 170.301 51.3431 169.253C51.346 168.879 51.3484 168.555 51.3323 168.342C51.3129 168.088 51.2729 167.78 51.2295 167.446C51.0705 166.229 50.8686 164.679 51.4794 164.24C52.3582 163.607 55.0719 163.595 56.0747 163.592L56.1601 163.592C57.5482 163.589 58.8181 163.585 60.2 163.352C61.5533 163.122 62.905 162.996 64.2522 162.871V162.871C66.0115 162.707 67.763 162.544 69.4996 162.153C72.5441 161.466 75.357 160.749 78.2252 159.522C78.6799 162.578 79.6669 165.348 80.668 168.157V168.157V168.158C80.9616 168.981 81.2565 169.808 81.5394 170.647C82.1291 172.396 83.0488 174.179 83.952 175.786C84.064 175.985 84.1817 176.237 84.3064 176.504V176.504C84.8325 177.63 85.483 179.022 86.3498 177.854C86.432 178.203 86.4262 178.47 86.4209 178.724C86.4143 179.02 86.4085 179.3 86.5415 179.675C86.7921 180.382 87.7974 181.213 88.6353 181.905V181.906C88.964 182.177 89.2668 182.428 89.4885 182.641C90.0176 183.151 90.5838 183.577 91.1549 184.008L91.1553 184.008C91.4031 184.195 91.6518 184.382 91.8987 184.577C91.976 184.638 92.0928 184.646 92.208 184.654C92.334 184.663 92.4579 184.671 92.5265 184.748C92.6735 184.915 92.6487 185.122 92.6289 185.288C92.6157 185.396 92.6045 185.487 92.6454 185.538C93.5787 186.711 95.0122 187.636 96.3656 188.509C96.8686 188.834 97.3601 189.151 97.8106 189.471C100.189 191.16 102.557 192.848 104.875 194.618C105.836 195.353 106.774 196.108 107.711 196.862H107.712V196.862ZM72.4198 135.027C74.1729 137.048 76.8883 140.132 79.6045 140.741C82.2613 141.337 86.4312 140.51 88.8021 139.205C88.6981 138.609 89.2816 137.576 89.8255 136.612C90.1567 136.025 90.4735 135.464 90.6119 135.043C90.7453 134.637 90.7675 134.321 90.7903 134.005C90.8064 133.776 90.8229 133.546 90.8815 133.282C90.9299 133.065 91.017 132.951 91.0963 132.847C91.2082 132.701 91.3053 132.574 91.2569 132.208C91.1752 131.575 90.718 131.229 90.2707 130.891C89.9292 130.632 89.593 130.378 89.4353 130.004C89.37 129.85 89.4427 129.301 89.5022 128.848C89.534 128.606 89.5625 128.392 89.5637 128.281C89.5773 127.394 89.4984 126.829 89.0491 126.067C88.3371 124.859 87.2663 123.878 86.2111 122.912C85.6441 122.393 85.0816 121.878 84.5814 121.333C84.1445 120.858 83.8835 120.361 83.6101 119.841C83.4742 119.583 83.3355 119.319 83.1707 119.049C82.9947 118.761 82.7651 118.5 82.5388 118.242C82.2357 117.897 81.9371 117.557 81.7785 117.167C81.6439 116.835 81.605 116.441 81.5658 116.042C81.5299 115.681 81.4939 115.316 81.3862 114.993C81.1813 114.381 80.8646 113.831 80.5478 113.28C80.3091 112.867 80.0708 112.453 79.88 112.013C78.9731 109.918 78.7389 107.425 78.5233 105.133C78.5023 104.91 78.4816 104.689 78.4606 104.47L78.3326 104.5C75.6027 105.137 72.9786 105.749 71.4683 102.719C71.2734 102.328 71.237 101.529 71.2023 100.764C71.166 99.9608 71.1309 99.1943 70.917 98.97C70.6229 98.6624 67.6792 98.8573 67.3438 99.1344C66.1362 100.133 66.1453 103.559 66.1515 105.781V105.782C66.1528 106.321 66.154 106.789 66.1379 107.134C66.0879 108.19 66.0074 109.249 65.9269 110.309C65.7679 112.402 65.6084 114.499 65.684 116.589C65.9087 122.793 68.3048 130.285 72.4198 135.027ZM120.071 175.213C120.5 177.361 120.931 179.518 121.499 181.624C121.739 182.51 121.849 183.384 121.96 184.257C122.102 185.377 122.244 186.497 122.657 187.641C122.617 187.902 122.592 188.202 122.566 188.518C122.468 189.732 122.349 191.192 121.244 191.622C119.985 192.112 119.167 190.916 118.699 189.879C117.872 188.043 117.761 185.806 117.653 183.633C117.597 182.491 117.541 181.367 117.382 180.329C117.075 178.319 116.931 176.325 116.787 174.328C116.677 172.795 116.566 171.259 116.381 169.712C116.271 168.797 116.086 167.812 115.895 166.799C115.431 164.338 114.936 161.712 115.425 159.522C115.894 159.511 116.761 162.379 117.326 164.247C117.525 164.905 117.687 165.44 117.78 165.681C118.591 167.771 119.007 169.877 119.435 172.046C119.525 172.503 119.615 172.962 119.71 173.424C119.832 174.019 119.952 174.616 120.071 175.213Z" fill="#FFB319"/>
<path fill-rule="evenodd" clip-rule="evenodd" d="M269.419 276.147C267.511 276.739 265.722 277.612 263.883 278.391C261.795 279.276 260.338 279.431 258.058 279.427C249.234 279.414 240.5 279.867 231.659 280.046C229.244 280.094 226.793 280.118 224.378 280.075C223.403 280.057 222.447 279.946 221.477 279.866C220.849 279.814 218.116 280.19 217.751 279.971C216.726 279.354 217.335 275.383 217.21 274.11C216.994 271.901 216.434 269.771 215.655 267.695C212.867 260.268 208.18 253.022 202.252 247.72C210.267 244.355 219.01 239.917 227.905 241.913C231.292 242.674 235.782 243.669 237.527 246.947C239.389 250.445 241.02 254.292 243.148 257.642C245.527 261.386 248.053 264.593 251.497 267.401C252.856 268.509 259.703 275.316 258.663 270.062C258.33 268.376 257.097 266.81 256.112 265.434C255.612 264.734 252.913 262.438 253.333 261.627C253.804 260.718 258.672 260.077 259.715 259.788C261.87 259.19 264.013 258.553 266.159 257.926C265.383 259.389 261.161 264.923 263.858 266.338C264.85 266.858 267.413 265.017 268.499 264.693C270.349 264.143 272.041 264.505 273.859 265.051C273.812 265.943 272.058 265.955 271.475 266.565C270.622 267.457 270.023 269.864 270.692 270.933C271.938 272.925 276.759 270.892 278.915 271.648C276.492 274.149 272.69 275.132 269.419 276.147ZM148.999 193.913C149.024 193.965 148.978 194.036 148.688 194.288C148.6 193.97 148.443 193.901 148.249 193.988C148.405 193.818 148.533 193.729 148.688 194.288C148.81 194.182 148.912 194.05 148.999 193.913ZM149.736 192.864C149.678 193.056 149.546 193.145 149.346 193.14C149.356 193.107 149.366 193.076 149.374 193.051C149.507 192.634 149.685 192.705 149.626 191.938C149.706 192.066 149.767 192.195 149.722 192.325C149.849 192.52 149.853 192.699 149.736 192.864ZM128.285 228.909C128.489 228.418 128.542 227.847 128.805 227.395C128.548 227.853 128.544 228.418 128.285 228.909ZM211.199 279.658C208.005 279.53 204.891 279.587 201.698 279.726C194.874 280.023 188.02 280.067 181.209 280.614C177.877 280.882 174.675 280.984 171.333 280.872C168.411 280.774 165.479 280.878 162.566 280.633C159.368 280.364 156.374 279.48 153.146 279.432C150.06 279.386 146.385 279.029 143.392 279.48C142.875 279.558 142.596 279.887 141.987 279.966C141.144 280.076 139.959 279.733 139.096 279.675C137.583 279.573 135.909 279.741 134.432 279.387C133.925 279.267 133.57 279.081 133.078 278.882C132.634 278.703 131.639 278.565 131.395 278.501C132.802 277.977 129.68 276.907 129.429 276.849C129.365 277.062 129.505 277.36 129.736 277.65C128.937 277.037 129.793 277.263 128.486 276.642C127.937 276.38 126.898 276.212 126.282 276.143C125.69 276.077 125.37 276.147 125.1 276.131C125.155 276.071 125.208 275.99 125.26 275.882C125.696 274.983 124.368 273.956 123.621 274.56C123.708 274.736 123.848 275.061 124.017 275.38C124.009 275.371 124.003 275.365 123.995 275.355C123.719 275.036 123.198 274.218 122.68 273.668C123.337 273.305 122.533 272.812 122.23 272.306C122.023 272.42 121.793 272.517 121.674 272.676C121.846 272.315 122.274 271.989 122.023 271.288C121.952 271.088 121.762 270.786 121.524 270.574C121.75 270.75 121.985 270.947 122.289 270.905C121.909 270.328 121.769 270.111 121.624 269.533C121.522 269.126 122.091 268.733 121.55 268.366C121.567 267.982 121.795 266.221 120.838 266.836C120.838 266.836 120.838 266.836 120.838 266.836C120.838 266.835 120.838 266.834 120.839 266.834C121.451 264.961 122.492 263.028 123.266 261.197C125.068 256.934 126.921 252.639 128.808 248.413C131.927 241.422 135.184 234.448 138.773 227.645C142.331 220.901 146.216 214.378 149.574 207.541C152.813 200.944 156.592 194.633 159.854 188.047C161.39 184.945 163.449 182.38 163.973 178.776C164.143 177.608 164.196 175.174 162.43 175.612C161.281 175.897 159.674 178.772 158.932 179.707C158.268 178.796 154.522 173.438 153.517 176.63C152.655 179.367 158.051 180.559 155.898 183.315C155.685 183.589 154.8 183.865 154.51 184.117C153.945 184.609 153.428 185.477 152.992 186.07C151.997 187.422 151.174 188.86 150.254 190.258C150.081 190.522 149.449 191.117 149.4 191.425C149.374 191.589 149.511 191.757 149.619 191.927C148.87 192.589 147.927 193.174 147.752 194.247C147.803 194.269 147.851 194.273 147.897 194.264C147.201 194.992 146.321 196.755 146.195 196.938C145.258 198.302 144.338 199.728 143.412 201.166C142.912 201.943 142.036 202.858 141.749 203.731C141.65 204.033 141.941 204.575 141.669 204.857C140.955 205.601 140.257 205.443 139.723 206.938C139.513 207.526 139.494 208.349 139.156 208.854C138.614 209.664 137.839 210.046 137.333 210.917C136.373 212.571 135.222 214.386 134.617 216.055C134.615 216.062 134.614 216.068 134.612 216.075C134.591 215.944 134.562 215.802 134.529 215.648C134.186 216.264 133.843 216.88 133.501 217.496C134.094 217.38 134.411 217.219 134.555 216.955C134.538 217.043 134.51 217.135 134.456 217.231C134.153 217.37 133.834 217.458 133.501 217.496C133.271 217.875 133.056 218.262 132.856 218.657C132.757 218.857 132.427 220.075 132.288 220.998C132.237 220.64 132.185 220.318 132.18 220.276C131.745 221.113 131.31 221.949 130.875 222.786C131.664 222.179 131.62 222.077 132.371 222.062C131.424 222.081 129.992 223.41 129.86 224.687C129.839 224.895 129.966 225.122 130.078 225.336C130.052 225.333 130.027 225.329 129.996 225.327C129.005 225.242 129.295 225.442 128.919 226.268C129.063 226.211 129.897 225.885 130.211 225.632C130.245 225.74 130.251 225.84 130.198 225.924C129.952 226.315 127.945 226.063 129.234 226.929C128.163 226.209 127.628 228.573 127.992 229.385C127.704 229.801 127.36 230.185 127.037 230.57C126.243 231.517 125.804 232.236 125.284 233.389C124.398 235.352 123.342 237.301 122.374 239.227C122.006 239.959 121.577 240.582 121.127 241.262C120.327 242.469 120.468 242.167 121.098 243.482C120.862 243.405 120.511 243.591 120.173 243.862C120.357 243.549 120.592 243.317 121.098 243.482C120.298 241.814 119.611 243.846 119.242 244.801C119.259 244.801 119.272 244.797 119.288 244.796C119.238 244.87 119.2 244.937 119.177 244.989C118.8 245.764 118.357 246.239 118.678 247.052C118.77 246.6 119.137 246.25 119.293 245.861C119.073 246.809 118.039 247.945 117.727 248.572C117.468 249.094 117.431 249.641 117.112 250.209C116.813 250.741 116.543 251.1 116.313 251.71C115.202 254.657 114.66 257.94 113.959 261.035C113.13 264.693 112.788 268.58 112.611 272.324C112.559 273.412 112.53 274.374 112.922 275.407C112.979 275.557 113.59 276.354 113.574 276.646C113.489 278.169 110.629 277.852 109.529 277.808C107.78 277.738 106.589 278.02 104.909 278.264C103.359 278.488 101.838 278.365 100.264 278.745C97.6506 279.377 93.7582 280.377 91.2307 278.99C90.0087 278.319 88.4699 276.374 87.5832 275.283C86.4917 273.94 86.1246 272.572 85.9288 270.861C85.5951 267.934 85.5724 264.7 86.59 261.902C91.3183 248.904 99.4297 237.088 106.425 225.259C112.99 214.159 120.349 203.638 126.926 192.567C130.404 186.715 134.587 180.925 138.723 175.517C142.95 169.989 145.967 163.974 148.947 157.717C152.036 159.355 155.306 161.04 158.761 161.781C160.725 162.201 162.675 162.074 164.656 162.21C166.115 162.31 167.336 162.654 168.823 162.692C175.342 162.858 182.874 162.077 189.105 160.152C190.6 159.69 191.937 159.211 193.338 158.545C195.127 157.696 195.611 157.335 195.712 159.31C195.909 163.133 196.533 166.85 196.827 170.65C197.113 174.355 197.86 178.008 198.52 181.669C198.854 183.523 199.214 185.375 199.488 187.238C199.696 188.652 200.324 190.619 200.074 192.033C199.799 193.593 198.321 195.176 197.475 196.508C196.616 197.859 195.753 199.207 194.897 200.559C193.291 203.095 191.692 205.502 189.796 207.829C186.28 212.143 183.287 216.654 179.953 221.108C176.414 225.839 173.472 230.948 169.997 235.727C168.163 238.252 166.286 240.632 165.083 243.475C164.086 245.834 162.078 248.003 160.851 250.337C159.238 253.401 157.188 256.207 155.587 259.287C154.469 261.438 152.311 263.625 152.084 266.125C151.705 270.319 155.692 266.128 156.615 264.959C157.853 263.39 159.21 260.646 161.07 259.795C162.398 259.188 164.339 259.254 165.78 258.779C167.291 258.281 168.774 257.764 170.3 257.309C173.272 256.42 176.139 255.167 179.028 254.04C182.019 252.872 185.008 251.695 187.943 250.397C189.301 249.796 190.446 249.488 191.897 249.227C192.521 249.114 194.756 248.058 195.248 248.148C196.074 248.298 197.213 250.727 197.84 251.351C198.805 252.315 199.891 253.102 200.793 254.137C202.57 256.178 204.453 258.353 205.994 260.57C209.436 265.524 212.656 270.937 213.881 276.905C214.431 279.584 213.789 279.762 211.199 279.658ZM121.662 273.181C121.641 273.135 121.627 273.093 121.619 273.051C121.63 273.093 121.639 273.134 121.662 273.181C122.069 272.939 122.177 273.067 122.219 273.265C122.014 273.133 121.822 273.085 121.662 273.181ZM120.712 270.415C120.695 270.34 120.688 270.271 120.685 270.206C120.691 270.275 120.696 270.344 120.712 270.415C120.935 270.265 121.121 270.308 121.3 270.415C121.11 270.312 120.905 270.286 120.712 270.415ZM121.122 268.604C121.247 268.595 121.389 268.527 121.55 268.366C121.418 268.498 121.294 268.637 121.181 268.782C121.183 268.765 121.186 268.748 121.187 268.729C121.19 268.694 121.161 268.651 121.122 268.604ZM80.5286 253.44C79.6006 255.628 79.2145 258.022 78.4261 260.263C77.8231 261.977 77.5824 263.67 77.4242 265.463C77.9743 265.869 77.9619 266.226 77.3874 266.534C77.3465 266.924 77.3325 267.315 77.3457 267.707C77.1962 268.849 77.4163 269.842 77.7187 270.936C78.1969 272.671 78.8036 273.917 79.6935 275.417C74.2917 277.25 68.137 277.766 62.4691 277.633C59.406 277.561 55.9696 277.555 52.9845 278.31C49.7702 279.124 46.952 278.784 43.6498 278.5C44.1321 277.528 45.9757 275.906 46.9095 275.231C47.3848 274.888 48.1666 274.829 48.5267 274.445C49.0413 273.896 49.1016 272.832 49.3011 272.113C50.5747 267.53 51.5176 262.908 52.3175 258.219C53.7271 249.955 54.382 241.495 54.7979 233.168C54.833 232.464 55.1969 231.673 55.1791 231.006C55.156 230.13 54.9053 229.843 54.9759 228.962C55.0218 228.387 55.7102 227.608 55.6606 227.097C55.6288 226.777 54.845 227.053 54.8921 226.427C54.9656 225.462 56.2145 224.19 56.4982 223.324C56.6241 222.939 56.1542 222.555 56.1686 222.134C56.1645 222.255 56.4788 220.833 56.4908 220.781C56.5853 220.373 56.9682 220.201 56.9475 219.701C56.9285 219.246 56.2657 218.65 56.6246 218.178C56.9876 217.701 57.7396 218.423 57.9684 218.006C58.2286 217.533 57.0846 215.918 57.2118 215.186C57.4344 213.904 58.3062 212.525 58.6478 211.224C58.7758 210.736 58.5697 210.133 58.9666 209.71C59.6575 208.975 60.2568 209.729 61.2533 209.483C60.2646 208.643 60.0474 207.833 60.3406 206.603C60.5785 205.604 61.0373 204.523 62.1169 205.51C61.9744 204.209 61.8224 204.077 62.7566 202.99C63.5631 202.052 64.6084 200.928 65.574 200.21C67.0169 199.135 69.3206 198.582 71.032 198.456C72.8999 198.318 75.1961 199.319 76.6102 200.731C78.3294 202.448 80.5534 203.7 82.5043 205.341C84.5874 207.094 86.3761 209.176 88.3774 211.034C88.7883 211.415 89.5449 212.482 90.1797 212.299C91.215 211.999 90.3787 210.454 90.152 209.767C88.538 204.877 85.6381 199.951 81.6482 196.616C79.5911 194.895 77.5439 192.718 75.1523 191.465C73.2204 190.453 71.7113 190.612 69.6572 190.54C67.9016 190.478 67.5406 190.374 65.975 191.113C64.8649 191.637 63.7659 192.148 62.7186 192.788C61.0439 193.812 59.3164 195.056 58.0787 196.603C54.7835 200.722 53.4974 205.959 52.2023 210.979C50.7775 216.5 49.7967 221.894 49.6236 227.622C49.4481 233.451 49.178 239.194 48.6035 245C48.3045 248.019 47.9605 251.031 47.5703 254.04C47.211 256.814 47.1924 259.795 46.6332 262.519C45.9295 261.494 45.7106 260.701 45.322 259.596C45.0597 258.852 44.7938 258.878 44.4142 258.329C43.6101 257.168 42.6049 254.965 42.2882 253.532C42.0945 252.656 42.2737 252.216 41.9144 251.445C41.8033 251.207 41.1995 251.394 41.1029 251.016C41.0335 250.746 41.4118 250.536 41.3949 250.444C41.3552 250.231 41.9425 249.994 41.4353 249.322C40.7147 248.369 41.0835 249.565 40.6944 249.548C40.3703 249.535 41.3428 246.244 41.2284 245.767C41.188 245.598 40.6366 245.575 40.5924 245.418C40.4586 244.944 40.4888 244.257 40.3583 243.742C40.039 242.485 39.5654 241.981 39.5422 240.545C39.5113 238.648 38.8083 237.305 38.4701 235.495C38.4049 235.147 38.7877 234.77 38.7163 234.47C38.5709 233.857 38.1174 233.32 37.9506 232.672C37.6293 231.424 38.0584 229.662 37.9704 228.647C37.8932 227.759 37.6441 226.317 37.4802 225.213C37.2134 223.417 37.6929 224.003 38.473 222.873C37.3914 222.524 37.5289 222.831 37.1832 221.668C36.7843 220.325 36.8211 219.534 38.0394 220.277C37.7156 219.48 37.1147 218.503 36.9825 217.648C36.8599 216.854 37.1502 216.125 37.0672 215.336C36.8421 213.203 36.1764 212.045 37.3885 209.974C35.8307 209.176 36.5093 206.428 36.2648 204.895C36.0021 203.241 35.3632 201.695 36.5947 200.617C35.3285 199.706 35.8299 197.093 35.8353 195.697C35.8373 195.064 36.0521 193.95 35.9976 193.388C35.9596 192.993 35.6907 192.727 35.6127 192.267C35.3248 190.561 35.9604 188.872 35.578 187.175C35.1472 185.263 35.0968 183.632 34.949 181.758C34.8061 179.941 34.5253 178.053 34.4043 176.191C34.3151 174.809 33.7761 173.314 34.0243 171.883C34.0441 171.77 34.3729 170.752 34.3824 170.982C34.3671 170.614 34.0991 170.158 34.0867 169.939C33.9987 168.282 33.9669 166.931 34.0379 165.25C34.0346 165.25 34.0309 165.249 34.0276 165.249C34.2329 165.125 34.3431 164.865 34.3518 164.461C35.9018 164.311 37.5975 164.69 39.1635 164.732C40.8518 164.776 42.5343 164.692 44.2205 164.614C45.305 164.564 47.6429 164.05 48.4689 164.956C49.0669 165.612 48.6907 168.989 48.7307 169.867C48.7778 170.905 49.3031 172.533 48.6961 173.441C48.3194 174.005 47.4683 174.23 47.0297 174.848C46.7625 175.224 46.5452 175.855 46.4036 176.264C45.9749 177.495 45.8039 178.825 45.8696 180.125C46.1793 186.213 51.0579 189.008 56.5358 186.555C61.3078 184.418 62.6054 177.955 58.5053 174.334C57.5401 173.481 56.5114 173.264 55.2795 173.054C54.4964 172.92 52.3601 173.002 51.8484 172.443C51.3404 171.889 51.4643 170.16 51.4081 169.44C51.3177 168.285 50.8531 166.568 51.105 165.454C50.6924 164.525 50.9675 164.132 51.9318 164.275C52.237 164.213 52.5422 164.152 52.8474 164.09C53.6164 163.951 54.3717 163.783 55.1527 163.729C56.5444 163.634 57.9015 163.799 59.2945 163.613C60.6607 163.43 61.9996 163.088 63.3682 162.912C64.8227 162.724 66.2508 162.933 67.6901 162.686C70.6776 162.175 73.8874 161.487 76.6821 160.312C77.4308 159.998 78.6995 159.092 79.53 159.242C80.5245 159.421 80.2585 160.054 80.5451 161C82.1343 166.247 85.4357 171.432 88.93 175.604C92.2289 179.541 96.5772 182.717 100.51 186.02C102.895 188.023 105.184 190.128 107.398 192.316C109.004 193.905 110.729 196.388 112.803 197.305C113.277 197.322 115.1 197.113 115.434 197.455C115.819 197.849 115.795 198.069 115.641 198.315C116.082 197.153 113.985 197.349 112.803 197.305C112.938 197.53 114.264 200.191 114.593 198.711C114.783 198.824 114.974 198.938 115.164 199.051C114.221 201.134 113 203.222 111.674 205.087C110.707 206.446 109.458 207.43 108.591 208.838C107.496 210.616 106.584 212.461 105.197 214.045C102.43 217.205 100.89 221.453 98.4786 224.959C97.3194 226.644 96.7143 228.21 95.508 229.887C94.5648 231.2 93.0367 232.86 92.4866 234.37C92.2673 234.974 92.5027 235.497 92.1009 236.057C91.8469 236.41 91.0944 236.794 90.7397 237.16C89.3302 238.616 88.2312 240.693 87.1261 242.405C85.9486 244.229 85.128 246.121 84.1307 248.021C83.1077 249.97 81.4149 251.351 80.5286 253.44ZM43.853 261.76C43.1203 261.772 42.8457 261.776 42.7639 261.454C42.74 261.358 42.7325 261.232 42.7358 261.068C42.7325 261.232 42.74 261.358 42.7639 261.454C42.8457 261.776 43.1203 261.772 43.853 261.76V261.76ZM43.9447 259.031C44.0206 259.236 43.5639 259.584 42.3505 259.455C43.5523 259.583 44.0124 259.237 43.9447 259.031ZM40.9612 265.884C41.0699 265.98 41.1752 266.08 41.278 266.183C41.1756 266.08 41.0699 265.98 40.9612 265.884ZM33.3941 280.213C32.4058 279.868 29.8354 279.257 28.1616 278.535C28.9082 278.744 29.6855 278.916 29.9845 279.021C31.1206 279.418 32.2571 279.816 33.3941 280.213C35.0039 274.41 41.0484 272.198 46.2206 270.055C43.7291 269.95 42.8391 267.787 41.3329 266.241C42.8358 267.783 43.7402 269.951 46.2206 270.055C41.0492 272.197 35.0039 274.41 33.3941 280.213ZM27.7403 274.37C27.6833 274.465 27.6272 274.562 27.5706 274.668C27.4165 274.956 26.8359 276.246 26.5918 277.092C26.5427 276.222 27.0593 275.204 27.7403 274.37ZM33.4309 164.179C33.523 164.142 33.5973 164.136 33.6646 164.141C33.3945 164.154 33.321 164.475 33.309 164.92C33.0745 164.671 33.0183 164.344 33.4309 164.179ZM52.204 177.589C53.9653 178.464 55.6747 178.973 57.3551 180.031C55.2935 181.634 48.7117 184.222 48.9083 179.269C48.9315 178.692 49.2689 177.142 49.7954 176.798C50.5966 176.276 51.5056 177.242 52.204 177.589ZM32.0395 154.527C39.7962 157.234 48.8328 156.565 56.7162 155.244C65.1866 153.826 73.6433 152.991 81.8485 150.336C81.8568 151.479 82.3523 152.675 81.4471 153.617C80.7372 154.355 79.1988 154.495 78.2609 154.806C75.8078 155.62 73.7007 156.804 71.1365 157.291C68.2646 157.835 65.3956 157.824 62.4985 158.146C61.4495 158.263 60.4629 158.451 59.4775 158.641C58.113 158.661 57.0437 158.846 55.6813 159.224C50.8081 159.247 45.9679 159.392 41.1149 158.811C38.6502 158.516 36.2123 158.155 33.7414 157.903C31.427 157.668 31.9437 156.67 32.0395 154.527ZM29.0722 133.706C24.5042 134.968 19.7928 134.59 15.2987 133.146C12.0485 132.102 7.73735 130.572 7.05385 126.616C6.60246 124.007 8.16644 123.534 10.0055 122.451C10.8855 121.933 11.3134 121.541 11.9052 120.663C12.2566 120.142 12.5722 118.833 12.9666 118.477C13.9272 117.607 16.9589 118.37 18.4622 118.303C20.7022 118.203 22.2204 117.45 24.2812 116.786C27.9212 115.612 30.2248 114.188 33.0505 111.502C35.7989 108.889 39.0264 106.232 41.2487 103.153C43.7377 99.705 46.1194 96.35 48.8307 93.0618C50.8399 90.6251 54.4845 85.7478 58.0894 85.7701C59.8987 85.7816 59.6311 87.4881 61.0679 88.3554C62.3799 89.1471 64.0963 88.5961 65.5384 88.459C64.5878 90.6194 63.2695 92.8416 63.7358 95.2865C63.9976 96.6556 64.1364 97.1284 63.6015 98.424C63.113 99.6076 62.5844 100.657 62.2816 101.924C61.103 106.864 60.545 112.423 61.0394 117.474C61.8955 126.217 64.8913 135.245 71.445 141.417C72.9392 142.824 74.5824 143.949 76.412 144.875C78.2374 145.798 78.3885 146.76 76.1274 147.173C71.7233 147.976 67.2523 148.525 62.8169 149.121C58.3872 149.717 53.8786 150.339 49.4118 150.43C47.2019 150.476 45.0056 150.751 42.7961 150.594C41.6959 150.516 40.6028 150.319 39.4993 150.289C38.5362 150.262 37.0982 150.744 36.2016 150.364C34.7983 149.77 35.4962 145.663 35.3934 144.237C35.2748 142.6 34.242 139.531 34.8552 137.984C35.2864 136.898 36.8681 136.442 37.6875 135.597C39.0326 134.21 40.3042 132.565 40.8179 130.674C42.5207 132.048 41.0558 132.93 41.5725 134.606C42.1366 136.435 43.1769 135.86 43.9913 134.605C45.3505 132.511 45.2596 129.274 43.9595 127.185C43.2071 125.978 41.9846 125.07 40.7304 124.424C39.7157 123.901 37.4694 122.877 36.3457 123.331C33.2958 124.563 36.5419 128.206 38.0922 129.07C37.7197 130.146 35.0778 131.699 34.0706 132.158C32.5743 132.841 30.6783 133.263 29.0722 133.706ZM70.9329 100.348C70.9729 100.934 71.0353 101.494 71.229 102.055C71.6234 103.198 72.4126 104.188 73.5 104.754C75.6095 105.853 79.8881 104.271 81.7424 102.975C81.7424 106.903 82.4465 110.027 83.5735 113.753C84.6634 117.358 86.8944 120.292 88.7924 123.493C89.7766 125.152 90.6802 126.866 92.0699 128.229C93.4827 129.614 93.7177 130.145 93.5889 132.187C93.377 135.551 91.775 137.845 88.7466 139.238C86.3476 140.568 81.3938 141.648 78.78 140.537C76.0324 139.369 73.3563 136.344 71.5767 134.016C67.534 128.726 65.4839 120.759 65.7297 114.183C65.8577 110.757 66.0386 107.252 66.3665 103.839C66.6052 101.353 66.5181 97.7781 70.135 98.8985C71.3037 99.2603 70.8387 98.9906 70.9329 100.348ZM84.8117 146.279C85.1602 145.568 88.23 144.854 88.7644 145.271C89.5751 145.903 89.6085 149.589 89.8935 150.638C90.3449 152.304 90.9392 153.949 91.6549 155.52C93.1573 158.814 95.3123 162.216 97.8695 164.782C100.52 167.439 103.565 169.281 106.782 171.185C107.701 171.73 108.591 172.387 109.536 172.881C109.932 173.089 110.667 173.186 110.979 173.497C111.752 174.27 111.394 175.854 111.385 176.859C111.348 180.887 111.362 184.783 111.895 188.756C108.743 186.316 105.894 183.218 103.088 180.373C100.145 177.39 96.3546 175.42 93.5641 172.261C91.025 169.387 89.0266 166.037 87.1612 162.712C86.3443 161.256 84.7877 159.399 84.7316 157.696C84.6708 155.86 85.508 153.917 85.5179 152.016C85.5241 150.67 84.2934 147.335 84.8117 146.279ZM122.669 187.39C122.478 188.606 122.631 191.214 120.939 191.475C119.774 191.656 119.058 190.55 118.631 189.625C117.342 186.827 117.768 183.094 117.287 180.088C116.718 176.539 116.705 173.04 116.265 169.486C115.877 166.352 114.585 162.399 115.289 159.311C115.928 159.295 117.654 165.338 118.026 166.296C118.793 168.269 119.676 169.929 120.339 171.975C121.217 174.684 121.979 177.271 122.384 180.106C122.668 182.098 123.736 185.637 122.669 187.39ZM132.027 174.029C130.449 176.48 128.744 179.034 126.519 181.078C126.519 179.935 125.664 176.218 126.244 175.334C126.934 174.282 130.851 174.233 132.027 174.029ZM70.7883 77.5112C72.1297 76.9024 73.626 76.7108 74.9789 76.0814C76.272 75.4801 77.2326 75.1171 78.6681 74.999C83.657 74.5897 88.7371 75.8667 93.3531 77.2634C95.8933 78.032 97.8975 79.7161 100.043 81.1752C102.263 82.6842 103.481 83.9984 104.447 86.5519C106.527 92.045 107.806 97.2387 108.634 103.031C109.473 108.908 108.11 114.848 108.195 120.738C108.278 126.547 108.693 132.596 110.539 138.128C111.966 142.406 114.495 149.291 119.825 149.718C124.885 150.122 129.166 144.905 131.258 140.989C136.788 130.634 138.866 118.797 139.166 107.176C139.947 103.287 140.393 99.0938 141.747 95.3642C143.252 97.7178 144.479 100.244 145.863 102.669C147.381 105.332 147.284 107.504 147.152 110.53C147.05 112.882 146.22 115.13 145.918 117.473C145.57 120.177 144.93 122.814 144.776 125.545C144.596 128.766 144.775 132.02 144.504 135.233C144.276 137.934 143.68 140.648 143.247 143.325C142.826 145.926 142.775 148.487 142.837 151.079C142.896 153.589 143.764 156.026 145.891 157.369C142.73 161.27 138.79 167.013 133.495 167.937C131.72 168.247 130.063 168.489 128.265 168.62C126.804 168.727 125.096 169.547 123.836 168.636C121.666 167.067 121.238 163.572 120.418 161.286C119.851 159.704 114.228 146.754 111.268 150.423C110.741 151.077 110.865 153.476 110.785 154.396C110.668 155.724 110.722 157.073 110.68 158.405C110.626 160.101 110.475 161.82 110.593 163.515C110.665 164.537 111.278 165.64 110.121 165.886C109.049 166.114 106.791 163.986 106.011 163.435C104.965 162.695 103.837 162.14 102.777 161.427C100.598 159.963 98.8693 158.118 97.319 156.028C95.7579 153.925 94.3682 151.565 93.3122 149.163C92.7757 147.944 92.3375 146.695 91.8894 145.444C91.8993 145.472 91.2245 143.893 91.2617 143.783C91.3806 143.43 92.8075 142.844 93.1598 142.566C97.1856 139.388 97.9917 131.487 96.9217 126.865C96.2737 124.069 94.1311 121.612 92.6093 119.232C91.139 116.932 89.5837 114.68 88.3642 112.232C87.0195 109.536 85.9804 106.705 84.7741 103.948C84.1918 102.617 83.4934 101.932 84.3628 100.714C84.8955 99.9665 85.9982 99.6605 86.4727 98.8427C86.9505 98.0201 87.0001 96.4325 86.1407 95.8445C85.2003 95.2006 83.8337 96.0997 82.9722 96.4503C81.8225 96.9178 80.674 97.1445 79.5007 97.5038C78.1684 97.9127 76.9695 98.8159 75.5554 98.8159C76.3157 96.1972 79.601 96.4458 80.6669 94.0104C81.395 92.346 81.3001 89.2491 79.0299 88.9748C77.7405 88.8187 76.7238 89.8025 75.7652 90.4624C74.5035 91.3305 73.5512 91.4924 72.0731 91.7646C71.5288 91.8649 70.6454 92.375 70.1292 92.2015C69.2917 91.9207 69.7749 92.0941 70.2135 91.4057C70.8656 90.3819 72.4076 89.3825 73.3398 88.6354C75.4352 86.9558 78.3398 85.7449 80.1553 83.7919C81.355 82.5005 81.9447 78.1587 79.6646 77.4658C78.7503 77.1874 77.2627 78.0943 76.3669 78.3718C74.8529 78.8402 73.3108 79.2131 71.8171 79.7475C69.1636 80.6965 66.6155 81.824 63.9237 82.6756C65.4571 80.4921 68.3703 78.6093 70.7883 77.5112ZM160.517 76.8715C160.517 78.3718 161.089 81.2239 160.443 82.588C159.861 83.8162 156.324 84.501 155.074 84.9701C151.028 86.4899 147.016 88.1823 142.88 89.4407C147.142 83.1282 153.476 79.4634 160.517 76.8715ZM159.921 56.4881C158.872 57.9939 157.05 60.0353 154.918 59.3237C152.619 58.5568 150.819 55.0373 151.993 52.8039C152.996 50.8963 155.859 49.6991 157.627 51.2027C158.013 51.5307 158.264 52.3694 158.633 52.6259C158.87 52.7903 159.246 52.3504 159.535 52.5264C160.39 53.0455 160.719 54.3129 161.953 54.2068C162.524 54.1581 164.353 52.6668 164.727 52.2856C165.729 51.2651 165.38 50.2194 165.538 48.8785C165.757 47.0308 167.031 46.7474 168.498 45.7943C169.895 44.8861 171.017 43.5324 172.399 42.6581C174.048 41.6136 173.103 42.9377 174.609 43.0686C174.881 43.0925 175.488 42.1893 175.96 42.2042C176.571 42.224 176.837 42.6308 177.185 43.0748C177.945 44.0391 177.386 44.3418 178.709 44.5665C179.664 44.7288 180.256 44.035 181.072 44.0486C181.74 43.2924 182.729 41.7136 183.923 42.1798C184.731 42.4953 185.02 44.1886 185.194 44.8956C185.85 47.5759 185.8 50.7262 185.825 53.475C184.289 52.3971 184.09 51.6731 183.61 49.9353C183.298 48.8062 182.545 47.1468 181.724 48.8429C181.49 49.3245 181.691 50.0625 181.536 50.5915C181.357 51.2048 180.929 51.5071 180.862 52.1761C180.701 53.7996 182.031 54.3559 183.178 55.1463C182.107 56.3002 179.027 55.4292 179.848 57.8931C180.717 60.4962 184.053 59.0548 185.718 58.4015C187.136 63.7794 180.833 66.3705 176.992 67.8411C174.736 68.7047 173.854 69.1858 173.544 71.819C173.279 74.076 173.583 76.387 174.41 78.4953C174.742 79.3403 175.059 80.495 175.512 81.2772C175.896 81.9396 176.66 81.9859 176.917 82.3555C177.867 83.7188 177.183 86.677 177.072 88.3132C176.768 92.7871 175.375 96.8616 174.776 101.228C174.468 103.461 173.548 105.551 173.154 107.758C172.792 109.783 172.649 111.695 170.943 113.143C167.514 116.052 164.862 111.756 163.674 108.931C161.981 104.908 161.812 99.6212 162.092 95.3315C162.396 90.6681 164.529 86.1884 164.641 81.5597C164.762 76.6096 164.015 71.9103 162.776 67.1242C162.235 65.0324 161.447 63.1599 160.779 61.1375C160.233 59.4839 161.137 57.9906 159.921 56.4881ZM168.834 7.51828C168.835 7.52204 168.834 7.52538 168.835 7.52914C168.813 7.50477 168.792 7.48157 168.768 7.45311C168.793 7.48268 168.814 7.50292 168.834 7.51828ZM168.936 7.05462C168.885 6.70519 168.773 6.26549 168.697 6.06775C168.882 6.18198 169.093 6.27788 169.1 6.39773C169.12 6.74154 169.022 6.9033 168.936 7.05462ZM174.027 7.93738C173.991 7.95757 173.957 7.97967 173.921 7.99916C173.836 7.99916 173.765 7.9812 173.702 7.95307C173.726 7.95832 173.752 7.96245 173.783 7.96472C173.866 7.97071 173.947 7.95832 174.027 7.93738ZM176.688 7.06061C176.211 7.05685 175.709 7.01229 175.152 7.25384C175.241 7.20069 175.329 7.15312 175.419 7.12128C175.668 7.0329 176.195 7.04264 176.688 7.06061ZM149.699 137.873C149.801 135.633 149.8 134.961 151.559 133.517C153.026 132.314 154.445 131.05 155.927 129.865C159.209 127.238 162.716 124.458 166.447 122.497C168.537 121.399 174.241 119.185 172.8 123.522C171.439 127.614 168.814 131.249 166.554 134.885C164.25 138.591 161.946 142.3 159.553 145.949C158.512 147.536 157.413 149.093 156.417 150.708C155.437 152.299 155.336 153.371 153.326 152.713C151.865 152.234 150.215 151.651 148.836 151.028C147.626 150.482 147.699 150.148 147.666 148.725C148.415 145.049 149.525 141.677 149.699 137.873ZM159.063 93.0655C158.554 95.1143 154.905 95.358 152.937 95.7552C152.598 95.8234 150.884 96.378 150.564 96.1881C149.932 95.8122 150.243 94.7265 149.974 94.2008C148.5 91.3231 148.478 95.002 148.058 95.8684C146.91 98.2422 145.149 93.49 144.504 92.3262C144.007 91.4309 143.475 90.9753 143.99 90.2237C144.418 89.598 146.799 89.1681 147.531 88.8984C150.198 87.9131 152.859 86.9095 155.519 85.9051C156.664 85.4727 160.191 83.2079 160.152 85.3843C159.772 87.8891 159.671 90.6152 159.063 93.0655ZM157.069 117.527C155.946 117.876 152.898 119.275 151.763 118.615C150.805 118.059 151.467 116.107 151.575 115.091C151.778 113.177 151.748 111.094 151.639 109.173C151.479 106.337 151.243 106.113 154.042 105.35C155.123 105.054 158.426 103.457 159.229 104.358C159.604 104.779 159.445 106.116 159.528 106.626C159.707 107.729 160.014 108.807 160.417 109.848C161.114 111.649 162.131 113.265 163.194 114.866C161.286 116.039 159.201 116.864 157.069 117.527ZM150.732 97.47C151.216 96.7733 153.628 96.6741 154.425 96.5056C155.835 96.2075 157.245 95.9126 158.654 95.6148C158.73 97.3316 159.7 101.815 158.466 103.054C157.771 103.751 155.449 103.93 154.465 104.172C153.394 104.436 152.321 104.695 151.248 104.954C151.127 103.299 151.026 101.643 150.849 99.9929C150.785 99.3862 150.338 98.0366 150.732 97.47ZM151.01 120.135C151.751 119.282 153.758 119.307 154.874 119.046C156.651 118.63 158.335 118.063 160.017 117.36C160.958 116.967 162.812 115.62 163.852 115.961C164.144 116.057 164.754 117.258 164.976 117.483C165.355 117.869 165.844 118.13 166.284 118.435C167.496 119.274 168.231 119.535 169.659 119.819C162.188 122.883 156.186 128.333 150.006 133.361C149.568 132.994 149.812 129.707 149.86 128.953C149.949 127.553 150.009 126.136 150.114 124.732C150.2 123.578 150.222 121.042 151.01 120.135ZM173.697 149.94C173.472 151.215 173.437 152.966 172.891 154.144C172.389 155.223 172.451 155.148 171.118 155.18C169.434 155.221 167.503 155.503 165.873 154.99C167.328 151.775 168.54 148.281 170.532 145.348C171.158 144.427 172.366 142.069 173.674 142.209C174.988 142.35 174.699 143.667 174.595 144.62C174.401 146.399 174.008 148.178 173.697 149.94ZM180.256 99.7881C181.267 92.8524 181.181 86.0716 181.181 79.0871C182.795 79.3007 184.573 79.166 186.128 79.6224C185.626 81.2239 184.177 82.6686 185.611 84.1892C187.067 85.7337 190.461 86.4106 192.428 86.9793C194.733 87.6454 197.083 88.4599 199.452 88.8555C200.516 89.0331 201.676 89.2057 202.749 88.9992C204.45 88.673 204.6 88.2216 205.717 89.973C205.723 89.9825 205.733 89.9966 205.739 90.0069C205.416 89.8215 204.392 89.933 204.664 89.9408C204.705 90.0821 204.764 90.2225 204.799 90.3534C204.497 90.1052 203.831 89.8962 203.738 89.8797C202.626 89.6844 201.215 90.1832 200.145 90.4302C197.744 90.9853 195.36 91.5895 193.035 92.4109C191.077 93.1022 189.138 93.8762 187.271 94.7847C185.829 95.4856 182.5 96.7204 182.046 98.438C181.173 101.732 189.874 104.234 191.996 105.349C193.999 106.402 193.367 107.963 193.389 110.055C193.414 112.327 193.62 114.577 193.462 116.844C193.34 118.6 193.206 118.328 191.454 118.297C190.142 118.273 188.829 118.22 187.518 118.299C185.669 118.408 183.769 118.665 182.034 119.337C179.437 120.343 174.449 125.133 179.419 126.592C181.466 127.193 184.104 126.973 186.202 126.828C188.021 126.703 190.871 125.874 192.627 126.5C193.542 126.241 193.872 126.574 193.617 127.498C193.66 128.132 193.702 128.765 193.744 129.399C193.829 130.674 193.913 131.949 193.998 133.224C194.172 135.833 194.345 138.443 194.518 141.052C192.993 138.891 190.895 134.627 187.645 135.114C184.856 135.532 183.207 139.857 182.309 142.089C181.578 143.903 181.107 145.804 180.613 147.692C180.139 149.507 179.966 152.073 179.098 153.718C178.244 155.338 177.057 154.794 175.308 154.961C173.121 155.169 174.002 153.945 174.35 152.087C174.879 149.256 176.753 144.372 174.946 141.733C172.639 138.365 169.38 144.606 168.495 146.291C167.666 147.867 166.96 149.5 166.326 151.162C165.916 152.235 165.585 154.552 164.527 155.139C163.233 155.859 161.181 154.708 159.992 154.332C158.595 153.89 157.069 153.705 155.635 153.416C159.718 147.025 163.964 140.729 167.925 134.262C169.905 131.029 172.404 127.634 173.491 123.977C173.698 123.284 173.951 122.622 173.866 121.885C173.794 121.256 172.848 120.268 172.909 119.831C172.997 119.184 174.296 118.645 174.903 117.965C177.013 115.603 177.543 112.791 178.198 109.789C178.911 106.521 179.774 103.089 180.256 99.7881ZM188.227 79.966C191.337 79.2961 194.87 81.0827 197.471 82.5252C199.186 83.4768 203.765 85.4661 203.942 87.7966C203.894 87.1647 199.683 87.5591 198.851 87.5794C195.293 86.8092 191.499 85.7705 188.18 84.2354C186.971 83.6762 185.551 83.1286 185.992 81.6935C186.28 80.7506 187.345 80.1559 188.227 79.966ZM184.62 125.817C182.654 125.704 175.517 125.781 179.108 122.218C181.357 119.986 185.498 119.502 188.489 119.49C189.561 119.485 190.617 119.57 191.682 119.679C191.973 119.714 192.266 119.748 192.558 119.783C193.45 119.606 193.728 119.975 193.393 120.89C193.553 121.426 193.809 124.602 193.339 125.049C192.714 125.641 190.727 125.38 189.995 125.437C188.197 125.577 186.424 125.828 184.62 125.817ZM195.058 152.814C189.886 153.585 184.723 154.567 179.479 154.65C180.262 150.827 181.174 147.013 182.599 143.371C183.51 141.045 185.164 136.02 188.351 136.268C190.895 136.465 193.865 140.824 194.574 143.052C195.499 145.955 195.058 149.795 195.058 152.814ZM208.34 94.7083C208.238 95.2382 205.916 96.1909 205.42 96.4792C201.839 98.5598 198.65 101.644 196.507 105.149C196.269 103.796 196.307 101.231 195.173 100.27C193.177 98.578 193.587 102.368 193.349 103.526C193.125 104.611 193.403 104.435 192.467 104.532C191.636 104.618 189.517 103.062 188.751 102.67C186.633 101.587 184.602 100.408 182.568 99.1781C184.253 96.3933 189.224 95.1147 192.055 94.0009C196.123 92.4001 200.134 91.5808 204.439 90.9179C205.159 91.2925 205.252 90.45 205.79 90.2613C205.82 90.2175 205.83 90.1808 205.832 90.1469C206.464 91.0864 208.494 93.9195 208.34 94.7083ZM213.607 132.237C215.611 141.443 216.11 151.021 218.641 160.116C221.047 168.761 223.183 177.369 225.963 185.897C227.564 190.81 229.051 195.771 231.191 200.489C232.684 203.779 233.869 210.796 237.505 212.336C239.885 213.344 240.941 212.451 240.686 210.038C240.466 207.937 239.377 206.618 238.478 204.804C238.165 204.172 237.145 202.389 237.256 201.718C237.394 200.885 237.606 200.975 238.475 200.562C240.32 199.687 242.16 199.095 244.125 198.588C243.332 199.817 241.749 201.575 241.622 203.079C241.516 204.32 242.408 206.595 243.64 207.072C244.805 207.521 246.176 206.573 247.173 205.994C248.328 205.324 249.428 205.137 250.699 204.662C249.079 206.995 246.426 208.855 247.562 212.065C248.774 215.49 252.534 212.689 254.939 212.302C254.252 214.955 251.205 217.981 249.013 219.457C247.542 220.449 245.945 221.342 244.366 222.145C243.755 222.455 242.951 222.645 242.39 223.015C242.177 223.156 241.817 223.753 241.623 223.847C238.896 225.164 235.175 225.5 232.208 226.133C228.938 226.83 226.124 227.001 222.757 226.839C219.973 226.706 216.887 224.995 214.56 223.558C212.791 222.466 212.533 221.131 211.982 219.203C211.069 216.008 210.252 212.792 209.38 209.585C208.629 206.821 208.279 204.165 207.77 201.361C206.692 195.417 206.195 189.379 205.039 183.445C203.89 177.551 203.505 171.581 203.187 165.556C203.034 162.654 202.562 159.695 202.418 156.85C202.301 154.535 202.341 152.206 202.353 149.826C202.363 148.153 201.77 146.481 201.81 144.802C201.846 143.318 201.982 141.981 201.825 140.481C201.491 137.286 201.23 134.129 200.978 130.929C200.488 124.692 199.046 118.537 198.471 112.326C198.223 109.64 201.171 107.064 203.168 105.5C205.297 103.833 207.004 101.492 209.347 100.18C210.214 110.952 211.307 121.668 213.607 132.237ZM178.331 247.405C176.021 248.434 173.713 249.465 171.402 250.493C169.703 251.249 167.475 252.802 165.608 252.662C166.935 250.864 167.771 248.808 169.187 247.062C170.6 245.319 171.766 243.467 173.044 241.624C174.723 243.673 176.439 245.549 178.331 247.405ZM178.822 238.365C182.316 236.522 187.281 233.02 191.376 233.681C194.326 234.156 197.667 236.316 199.448 238.694C200.283 239.81 201.119 240.85 202.075 241.944C202.951 242.946 203.401 242.815 202.635 243.86C202.046 244.664 200.657 245.208 199.753 245.519C199.753 243.76 200.299 241.997 198.187 242.171C197.353 242.24 196.381 242.439 195.55 242.575C194.834 242.692 194.419 243.003 193.809 243.146C193.158 243.299 192.38 243.119 191.705 243.172C190.543 243.263 189.612 243.729 188.511 243.973C186.234 244.477 184.311 245.175 182.093 245.92C181.078 244.369 180.226 242.504 178.848 241.237C177.307 239.819 176.649 239.51 178.822 238.365ZM148.848 6.09174C149.184 6.05652 149.567 5.84792 149.826 5.41308C149.373 6.17413 149.105 6.20858 148.848 6.09174ZM138.375 7.30369C138.782 7.37745 139.183 7.46773 139.519 7.62537C139.85 7.78044 140.028 7.9572 140.205 8.11228C140.122 8.07631 140.033 8.03773 139.932 7.99577C139.496 7.8134 138.937 7.48421 138.375 7.30369ZM131.39 65.0142C131.363 64.9771 131.337 64.9428 131.311 64.9093C131.337 64.9428 131.363 64.9771 131.391 65.0142H131.39ZM130.032 65.2112C129.905 65.1646 129.797 65.0873 129.711 64.975C129.797 65.0873 129.905 65.1646 130.032 65.2112C130.117 65.2422 130.211 65.2595 130.312 65.2645C130.211 65.2595 130.117 65.2422 130.032 65.2112ZM129.489 64.0999C129.489 64.2614 129.501 64.403 129.526 64.5277C129.501 64.403 129.489 64.2614 129.489 64.0999ZM131.134 64.7012C131.101 64.6665 131.069 64.6343 131.036 64.6041C131.069 64.6343 131.101 64.6669 131.134 64.7012ZM130.854 64.4575C130.802 64.4224 130.75 64.3906 130.696 64.3638C130.75 64.3906 130.802 64.4224 130.854 64.4575ZM188.936 8.81972C189.011 8.84144 189.076 8.85082 189.136 8.85417C189.054 8.86242 188.989 8.85008 188.936 8.81972ZM190.733 10.0238C190.514 9.82117 190.385 9.62269 190.318 9.42384C190.352 9.44482 190.389 9.4639 190.431 9.48038C190.496 9.41595 190.561 9.35152 190.626 9.28677C190.536 9.45452 190.505 9.61633 190.575 9.76166C190.91 10.4627 191.319 9.39687 191.825 9.92417C191.446 9.87775 190.984 10.0238 190.733 10.0238C190.15 10.8245 189.566 11.6256 188.982 12.4263C189.772 12.8207 190.02 12.3338 190.461 13.0525C190.482 13.0874 190.502 13.1728 190.518 13.2855C190.335 12.7616 189.856 12.8623 188.982 12.4263C189.566 11.6256 190.15 10.8245 190.733 10.0238ZM192.245 11.7867C192.299 11.7462 192.332 11.6904 192.353 11.6166C192.366 11.5672 192.375 11.5099 192.381 11.4436C192.375 11.5099 192.366 11.5672 192.353 11.6166C192.332 11.6904 192.299 11.7462 192.245 11.7867C192.209 11.8136 192.163 11.8339 192.105 11.8477C192.163 11.8339 192.209 11.8136 192.245 11.7867ZM192.411 10.9354C192.403 11.0399 192.399 11.1339 192.395 11.2181C192.399 11.1339 192.403 11.0399 192.411 10.9354ZM191.547 13.0683C191.573 13.1147 191.6 13.1567 191.63 13.1956C191.601 13.1555 191.572 13.1147 191.547 13.0683ZM190.669 16.2195C189.835 15.7727 190.56 15.2101 190.594 14.5236C190.597 14.4626 190.598 14.4109 190.6 14.3547C190.606 14.5207 190.607 14.6566 190.603 14.7233C190.546 15.6933 189.858 15.9633 191.111 16.2573C191.197 16.2775 191.308 16.288 191.434 16.2929C191.113 16.3161 190.834 16.3079 190.669 16.2195ZM203.606 23.4282C203.554 23.0316 205.409 22.1661 205.648 22.0597C205.355 22.1904 203.556 23.0522 203.606 23.4282ZM205.716 19.916C205.703 19.9108 205.69 19.9092 205.677 19.9036C205.68 19.8744 205.677 19.8471 205.677 19.8186C205.686 19.8545 205.697 19.8879 205.716 19.916ZM206.704 23.1192C206.714 23.0762 206.733 22.9612 206.755 22.8241C206.788 22.9934 206.824 23.1522 206.859 23.2908C206.818 23.2368 206.769 23.1803 206.704 23.1192ZM205.262 23.0949C205.261 22.4226 205.472 22.5661 205.603 22.5863C205.483 22.7664 205.262 22.8001 205.262 23.0949ZM203.305 24.5713C203.5 24.5331 203.664 24.645 203.815 24.7742C203.486 24.687 203.215 24.5885 203.305 24.5713ZM201.713 28.4113C201.683 28.4216 201.655 28.4282 201.626 28.4365C201.655 28.4282 201.683 28.4216 201.713 28.4113ZM201.874 28.3535C201.852 28.3621 201.833 28.3679 201.813 28.3758C201.833 28.3679 201.852 28.3621 201.874 28.3535ZM201.573 28.4522C201.533 28.4621 201.495 28.4691 201.459 28.4741C201.495 28.4691 201.533 28.4621 201.573 28.4522ZM202.796 51.6901C202.879 51.5517 203.056 51.5059 203.256 51.484C203.004 51.5802 202.81 51.7863 202.764 52.0853C202.714 51.9746 202.702 51.8495 202.796 51.6901ZM204.255 47.3917C204.242 47.3876 204.227 47.3822 204.214 47.381C203.806 47.3492 203.628 47.6135 203.584 48.0178C203.611 47.6651 203.729 47.3777 204.035 47.2839C204.018 47.2521 204.005 47.2224 203.99 47.1914C204.068 47.262 204.158 47.3289 204.255 47.3917ZM203.771 49.5681C203.763 49.5202 203.753 49.4678 203.742 49.4133C203.788 49.6057 203.84 49.7969 203.893 49.9807C203.84 49.8329 203.794 49.6916 203.771 49.5681ZM204.127 42.8761C204.094 42.8914 204.056 42.905 204.017 42.9166C204.056 42.905 204.094 42.8918 204.127 42.8761ZM204.227 42.8171C204.204 42.8344 204.177 42.8493 204.149 42.8633C204.177 42.8493 204.203 42.834 204.227 42.8171ZM203.998 42.9232C203.951 42.9356 203.899 42.9463 203.842 42.9533C203.899 42.9463 203.95 42.936 203.998 42.9232ZM204.417 38.038C204.423 38.2185 204.423 38.3985 204.429 38.5691C204.4 38.4014 204.397 38.2362 204.417 38.038ZM285.379 278.978C284.264 277.975 280.526 277.909 279.042 277.627C282.253 274.555 284.666 266.79 278.533 265.793C277.175 265.572 276.791 266.095 276.48 264.557C276.289 263.615 276.678 262.747 276.21 261.808C275.1 259.58 270.883 259.828 268.775 259.508C269.279 257.738 270.514 254.577 268.654 253.14C267.186 252.007 264.132 253.52 262.572 254.005C258.36 255.316 254.08 256.813 250.526 259.454C248.934 257.304 247.268 255.183 245.932 252.858C244.658 250.64 243.869 248.188 242.671 245.931C241.47 243.666 240.194 240.997 238.517 239.051C237.097 237.403 235.149 237.24 233.275 236.453C228.521 234.459 224.402 234.573 219.435 235.311C214.47 236.048 210.166 238.952 205.961 241.485C204.31 235.919 200.492 229.872 194.574 228.156C191.918 227.385 189.124 228.129 186.695 229.34C183.686 230.841 181.321 233.393 178.378 234.814C181.733 229.07 185.969 223.668 189.656 218.244C191.678 215.268 194.234 212.613 196.209 209.581C198.223 206.491 199.706 203.055 201.167 199.682C202.401 202.83 202.61 206.142 203.743 209.301C204.783 212.201 205.496 215.176 206.679 218.028C207.914 221.006 209.005 223.943 210.675 226.714C211.627 228.294 213.974 233.218 215.704 230.06C219.555 232.66 223.271 234.23 228.086 234.116C230.291 234.064 232.746 233.995 234.856 233.501C236.999 233 239.047 232.325 241.176 231.844C242.861 231.465 244.401 230.436 245.934 229.674C247.697 228.797 249.444 227.222 250.805 225.84C252.49 224.129 254.232 222.482 255.926 220.782C257.603 219.099 257.482 217.382 258.379 215.291C259.315 213.11 259.716 211.182 258.478 208.98C257.571 207.367 255.966 207.589 255.59 205.956C255.234 204.407 255.581 202.946 254.607 201.524C253.868 200.446 251.21 199.724 251.202 198.623C251.194 197.713 252.14 196.908 252.102 195.816C252.069 194.84 251.592 193.273 251.067 192.448C250.083 190.896 248.583 190.844 246.892 191.318C242.806 192.463 238.8 195.408 235.989 198.502C232.136 187.949 229.102 177.164 226.284 166.37C225.039 161.603 224.064 156.772 223.272 151.911C222.488 147.097 221.301 142.248 220.772 137.41C220.454 134.508 219.561 131.793 219.143 128.926C218.798 126.553 218.568 124.161 218.227 121.787C217.475 116.526 216.431 111.345 215.618 106.096C215.169 103.196 214.155 100.658 213.375 97.8648C212.706 95.4695 212.307 93.4215 211.189 91.1583C209.055 86.8426 206.861 81.556 202.716 78.8133C199.03 76.3738 195.455 74.3353 190.962 73.836C188.327 73.5428 186.203 74.1619 183.626 74.4464C181.345 74.6983 179.391 75.9592 177.165 76.4135C177.165 74.2986 176.959 74.2416 178.889 73.4891C180.001 73.0559 181.086 72.5797 182.218 72.2031C183.412 71.8058 184.315 71.4184 185.333 70.6887C186.534 69.8272 185.776 70.101 187.216 70.3983C189.485 70.8683 188.816 70.3232 190.309 69.1928C191.177 68.5349 192.063 68.9364 193.079 69.0677C194.027 69.1903 195.588 69.6095 196.311 68.7559C196.862 68.1067 196.262 66.9928 196.667 66.2875C197.307 65.1736 199.142 65.2244 200.122 64.4761C201.194 63.658 201.291 62.7354 201.058 61.477C200.898 60.606 199.524 58.6708 199.602 57.9216C199.653 57.4223 199.916 57.2761 200.256 57.2352C202.939 57.3707 202.81 56.9664 202.155 54.5884C202.117 54.9407 202.093 55.2401 202.067 55.4982C202.06 55.129 202.063 54.7841 202.155 54.5884C202.225 54.441 202.476 54.346 202.703 54.227C202.643 54.2865 202.58 54.3472 202.506 54.4154C202.621 54.9208 202.655 56.2416 203.14 56.6009C203.487 56.8582 204.705 56.8317 204.951 56.4018C205.465 55.504 203.698 54.9944 203.629 54.3278C205.658 54.1581 204.966 53.169 203.904 52.1592C203.863 51.8821 204.023 51.7508 204.388 51.7656C204.207 51.5765 203.983 51.4687 203.759 51.434C203.917 51.4076 204.054 51.3613 204.127 51.249C204.19 51.1503 204.194 51.0136 204.171 50.8608C204.21 50.9785 204.245 51.0797 204.27 51.1577C206.021 51.8643 205.121 48.114 204.395 47.4747C204.451 46.434 204.507 45.3937 204.562 44.3534C204.062 44.6829 203.682 45.1967 203.552 45.7332C203.57 45.238 203.859 44.8176 204.562 44.3534C203.436 43.8578 203.325 43.7975 204.534 43.6918C205.536 44.6053 205.396 43.847 206.017 43.2891C205.979 43.3221 206.956 42.2608 206.89 42.4231C207.355 41.2754 206.842 38.854 204.973 39.6424C205.988 40.5514 204.97 40.7187 204.615 41.5C204.603 41.5261 204.594 41.5537 204.584 41.581C204.603 41.4877 204.628 41.3972 204.666 41.3142C205.293 39.9683 205.441 41.0016 204.752 39.4706C204.751 39.4698 204.751 39.4686 204.75 39.4669C204.932 39.559 205.217 39.5396 205.67 39.3492C206.234 38.6604 206.405 38.942 206.707 38.0545C206.972 37.2785 206.849 36.7486 206.32 36.46C206.381 36.4757 206.441 36.4934 206.502 36.5087C206.735 35.9115 206.411 35.3428 205.87 35.0682C205.652 35.4254 205.433 35.7831 205.216 36.1407C205.314 36.1725 205.413 36.201 205.513 36.2312C205.512 36.2312 205.511 36.2312 205.51 36.2308C204.817 36.1506 204.536 36.2749 204.432 36.5946C204.398 36.4513 204.388 36.3101 204.468 36.182C204.552 36.0453 205.151 36.2481 205.216 36.1407C206.289 34.3814 205.155 32.9165 203.428 32.0204C202.772 31.6801 201.478 31.6685 201.246 30.8719C201.083 30.309 201.898 28.9469 202.055 28.2791C203.26 27.7261 201.035 27.4028 201.02 27.4003C200.953 28.1879 200.996 28.5368 201.451 28.4757C200.993 28.5377 200.953 28.1854 201.02 27.4003C201.674 27.5006 203.604 27.3206 204.55 26.6772C206.117 26.7217 206.923 26.9933 207.873 25.6349C206.945 25.2495 205.851 25.457 205.018 24.8653C205.057 25.0431 205.088 25.2046 205.108 25.3536C205.036 25.1334 204.879 24.9439 204.668 24.7641C204.804 24.881 204.734 24.9184 204.572 24.9132C204.603 24.8716 204.635 24.8237 204.668 24.7641C204.725 24.105 205.209 24.3735 205.7 24.4147C205.687 24.2027 205.603 24.0245 205.512 23.8477C205.602 24.0173 205.686 24.1911 205.7 24.4147C206.011 24.217 206.322 24.0192 206.633 23.8211C206.802 23.772 206.903 23.7035 206.943 23.6173C206.943 23.6188 206.944 23.6207 206.944 23.6222C208.43 24.0656 207.978 20.9174 207.294 20.9336C207.11 20.9381 206.978 21.0055 206.88 21.1122C206.901 20.8219 206.951 20.5148 207.07 20.0849H207.068H207.07C207.139 19.8999 207.208 19.7149 207.279 19.5299C206.904 19.5538 205.691 18.8299 205.67 19.6935C205.646 19.5377 205.585 19.3924 205.479 19.2602C205.587 18.3048 205.025 18.386 204.153 18.1191C203.83 18.0198 203.473 17.4 203.108 17.6603C202.56 18.0512 202.89 18.4194 203.242 18.6981C203.19 19.0227 203.035 19.2823 202.776 19.4763C202.737 19.4392 202.699 19.4107 202.661 19.3819C202.903 19.24 203.108 19.0141 203.242 18.6981C202.122 17.8115 201.649 18.3917 200.787 19.1048C201.13 19.3905 201.528 19.5444 201.909 19.5602C201.889 19.6021 201.87 19.6445 201.853 19.6946C201.421 19.6407 201.066 19.4441 200.787 19.1048C201.702 18.3471 201.62 17.8827 200.506 17.4333C200.13 17.2816 199.892 17.6194 199.426 17.4408C199.195 17.352 199.028 16.949 198.803 16.8157C197.118 15.8183 195.094 16.3861 193.299 16.1498C193.524 16.121 193.725 16.0929 193.878 16.0727C193.7 15.454 193.218 15.1862 192.712 14.9978C192.713 14.6454 192.713 14.2926 192.713 13.9401C192.641 13.9241 192.572 13.9165 192.505 13.9147C192.622 13.8218 192.692 13.6956 192.676 13.4806C192.243 13.6372 191.875 13.5218 191.638 13.2084C192.11 13.8102 193.028 13.4952 193.308 12.7233C193.601 11.9144 192.972 11.3709 192.424 10.7706C192.437 10.1939 192.192 9.98637 191.875 9.93094C192.447 8.80886 192.575 9.3654 191.962 7.96207C191.911 7.01642 191.109 7.35986 190.567 7.96732C190.624 7.82802 190.683 7.68492 190.739 7.53587C190.313 7.50705 189.888 7.47818 189.462 7.44861C189.57 7.79391 189.809 8.40888 189.495 8.70215C189.704 8.40215 189.555 7.74674 189.462 7.44861C188.94 7.15799 188.42 6.86737 187.898 6.57597C187.942 6.66922 188.062 7.02018 188.211 7.41751C187.81 6.85911 187.482 6.51307 186.936 5.93819C186.669 5.65765 185.625 4.31128 185.335 4.22736C183.565 3.71426 182.226 7.17596 180.067 6.70218C178.794 6.42279 179.388 6.09323 178.185 6.32694C177.526 5.47115 173.227 6.81678 173.062 7.63098C173.142 7.60926 173.204 7.6003 173.254 7.59881C172.769 7.77256 172.348 8.03996 171.878 8.22085C170.701 8.6748 171.402 8.79313 170.066 8.0291C169.61 7.76847 169.442 7.85011 169.264 7.82612C169.839 7.56771 170.116 5.77899 170.125 5.14122C170.145 3.6173 169.944 3.8847 170.538 2.79186C169.989 2.78323 169.601 2.7364 169.313 2.86711C169.395 2.60796 169.454 2.35364 169.453 2.10759C169.751 1.30164 169.488 0.352229 168.568 0.127895C167.176 -0.211786 166.903 1.78703 167.911 2.11436C166.946 1.80123 167.333 0.536876 166.019 0.365693C166.502 0.340997 166.801 0.432018 167.25 0.984057C167.399 0.684435 167.547 0.385185 167.695 0.0855637C166.649 -0.023795 166.166 -0.112545 165.321 0.378826C164.494 0.526386 163.912 1.12522 163.288 1.70984C161.588 3.30194 160.062 4.8558 158.498 6.58311C157.694 4.93183 156.807 3.72963 155.502 5.57753C154.325 7.24525 153.371 9.55042 152.759 11.4897C151.536 10.9283 152.052 10.7451 151.539 9.83579C152.072 10.7215 151.53 10.9253 152.759 11.4897C152.881 11.1028 153.004 10.7155 153.126 10.3286C152.055 9.10811 152.1 7.89542 150.941 6.59398C150.812 7.01117 151.182 7.60554 151.246 7.98157C151.318 8.39839 150.856 8.6879 150.961 9.13619C151.395 8.97777 151.495 9.07325 151.509 9.24667C151.494 9.07367 151.392 8.97889 150.961 9.13619C150.789 8.40401 151.216 8.0149 150.978 7.19731C150.882 6.867 150.742 6.6254 150.573 6.39174C151.311 5.15769 148.924 4.30265 148.369 5.0371C148.299 5.12961 148.252 5.21572 148.215 5.29889C147.283 4.87979 146.995 5.77151 146.561 6.44117C146.457 6.65051 146.354 6.86023 146.25 7.06998C145.702 7.52051 145.193 8.46319 144.78 9.08003C143.896 10.3987 143.526 12.3286 142.445 13.4274C142.481 12.7196 142.867 11.1504 141.596 11.7833C142.016 11.5743 142.076 11.3204 141.984 11.026C142.063 11.0706 142.149 11.1111 142.248 11.144C142.427 11.1616 142.606 11.1788 142.785 11.196C142.762 10.1939 142.105 9.53506 141.329 9.0021C141.329 9.26389 141.321 9.5332 141.337 9.79123C141.333 9.78186 141.329 9.77289 141.325 9.76352C140.984 8.94742 141.129 8.70698 140.834 8.45683C140.949 8.48454 141.082 8.50437 141.245 8.51225C140.296 6.90669 139.033 6.65014 137.288 7.10257C137.407 7.13065 137.531 7.1546 137.658 7.17823C137.461 7.1786 137.269 7.21378 137.09 7.30105C136.413 7.63098 135.41 9.52758 134.939 10.1852C133.284 12.4998 132.514 15.3356 131.647 18.0108C131.404 18.7636 131.034 20.528 130.093 20.7804C128.999 21.074 127.84 19.292 126.878 18.6965C123.797 16.7906 122.265 20.2126 121.79 22.9275C121.082 24.1286 121.245 25.0544 122.267 25.6233C121.981 25.2102 121.849 24.7701 121.795 24.3162C121.93 25.0877 122.574 25.3551 122.69 25.6855C122.754 25.8667 122.842 26.9663 122.84 27.1873C123.367 27.5799 123.406 27.8703 122.959 28.0582C122.685 28.2449 122.429 28.4538 122.19 28.6847C121.452 29.4627 121.459 30.5419 120.784 31.2989C120.02 32.155 119.32 31.7767 118.959 33.1842C118.342 35.5952 119.863 39.2361 122.6 39.4665C122.275 40.416 121.855 41.379 121.612 42.3524C121.29 43.648 121.312 43.7793 121.923 45.0187C117.37 44.3418 117.726 49.1614 120.321 51.5286C120.936 52.0898 121.609 52.4392 122.402 52.6878C122.977 52.8679 124.71 52.7675 125.123 53.3123C125.993 54.4604 124.051 55.9533 123.879 57.2344C123.862 57.3657 123.854 57.5908 123.86 57.8522C123.143 58.7298 123.178 58.8021 124.203 59.6227C124.764 60.3458 126.498 60.1728 127.025 60.8641C127.836 61.928 126.028 63.6406 126.934 64.8837C127.655 65.8716 128.407 65.2558 129.562 65.6746C130.12 65.9298 130.679 66.1855 131.237 66.4423C131.498 66.2606 131.784 66.1466 132.095 66.1004C132.747 66.4287 132.125 67.0065 132.946 67.1998C133.373 67.3344 134.36 67.8461 134.791 67.5809C134.179 67.9572 133.769 68.8872 133.417 69.9098C133.083 70.4566 132.775 71.0583 132.898 71.5101C132.692 72.1362 132.481 72.7073 132.229 73.105C133.65 73.3214 133.482 74.6599 134.466 75.3946C135.795 76.532 136.016 75.4764 135.702 74.9218C135.835 74.9891 135.972 75.0766 136.112 75.1766C136.139 75.1952 135.854 75.8708 136.134 76.0286C136.526 76.2499 136.526 76.0277 136.934 76.0236C137.318 76.0191 137.875 75.4425 138.344 75.3942C138.594 75.3686 139.332 75.7102 139.485 75.609C139.911 75.3269 139.878 75.0176 139.712 74.6434L139.902 75.0234C140.36 76.2194 140.591 75.9501 141.285 75.6073C141.098 75.6998 141.829 75.1539 141.98 75.1976C141.638 74.2498 140.282 74.3494 139.446 74.1123C139.975 74.2622 140.835 74.268 141.322 74.4778C142.137 74.8288 141.879 75.1857 142.844 75.2951C143.25 75.3409 144.908 74.8908 145.2 74.5959C145.228 74.5678 145.247 74.5336 145.262 74.4956C145.413 74.2556 145.563 74.0153 145.713 73.7749C146.325 73.8459 145.662 74.7875 146.623 74.413C147.341 74.1325 146.992 73.7427 146.763 73.3173C146.689 73.1777 146.604 73.0786 146.516 73.0072C147.508 73.2446 148.688 74.5798 150.042 74.2061C150.806 73.995 150.849 73.4738 151.409 72.9861C152.157 72.3348 152.389 72.4352 153.295 72.1201C153.844 71.9293 154.428 71.508 154.98 71.4097C155.88 71.2499 155.632 71.349 156.377 71.7281C156.823 71.9545 157.076 72.3798 157.639 72.462C158.153 72.5372 158.96 71.9462 159.375 72.1085C160.507 72.5508 160.219 74.1391 160.283 75.1865C154.555 73.3632 147.859 76.2772 143.643 80.279C142.5 81.3639 141.752 82.6504 140.736 83.8303C139.633 85.1105 138.594 85.692 138.439 87.5158C138.306 89.0884 139.015 90.0325 138.455 91.5436C137.918 92.9915 137.332 94.2875 136.939 95.7974C135.063 103.007 135.005 110.494 133.614 117.804C132.328 124.567 130.49 130.592 127.463 136.792C126.059 139.666 124.883 141.426 121.804 142.638C119.314 143.618 117.491 142.333 116.274 140.097C112.999 134.08 112.533 127.892 112.573 121.18C112.591 117.956 112.959 114.731 113.27 111.526C113.592 108.203 113.351 105.099 113.119 101.782C112.656 95.1304 111.138 89.4254 108.854 83.1699C107.772 80.203 106.859 77.3105 104.251 75.3802C102.79 74.2994 101.323 72.9477 99.611 72.0127C98.2411 71.2648 97.4255 70.5891 95.8636 70.2542C94.8361 70.0341 93.8998 69.6942 92.9079 69.3745C90.5666 68.6217 87.8587 68.3887 85.4031 68.397C79.6692 68.4164 73.3765 70.3467 68.2154 72.8221C65.6454 74.0545 62.8549 75.8898 61.162 78.2277C60.4637 79.1929 59.9879 80.2629 59.5134 81.3486C58.9455 82.6462 59.124 82.8837 57.9217 82.8387C57.1685 82.8102 56.326 82.1131 55.4632 82.0759C54.5187 82.0354 53.8274 82.3646 52.9482 82.6083C51.8323 82.9176 50.7833 83.1947 49.7909 83.8361C47.3832 85.3905 45.3467 87.8685 43.5069 90.03C40.1386 93.9868 37.0912 98.4211 33.9401 102.451C30.8369 106.419 27.0672 109.941 22.2472 111.74C20.4086 112.426 18.3726 112.565 16.4951 113.12C15.6712 113.363 14.6734 114.01 13.8103 113.998C12.4541 113.981 12.5585 113.317 12.089 112.24C11.5306 110.962 10.7232 109.967 9.71389 109.011C5.23713 104.773 -0.330334 111.053 0.0153349 115.89C0.217285 118.717 2.3359 120.581 2.26115 123.356C2.19095 125.951 2.34582 128.584 3.27132 131.047C4.31039 133.809 6.86553 136.674 9.11878 138.553C11.206 140.295 13.8206 140.664 16.4501 140.955C17.6552 141.088 18.9057 141.446 20.0712 141.425C21.0698 141.407 21.9779 141.003 22.9972 141.044C24.7268 141.113 25.6535 141.102 27.2741 140.489C28.4758 140.034 29.5599 139.781 30.8687 139.811C30.8687 142.568 31.0438 145.266 31.2808 148.014C31.3118 148.377 31.5629 149.32 31.3957 149.643C31.19 150.043 30.9455 149.779 30.6886 150.067C30.0766 150.751 29.633 151.088 29.1746 151.978C27.9171 154.42 27.5322 157.151 28.0224 159.873C28.4065 162.008 29.6615 162.887 29.365 165.155C29.016 167.819 28.3672 170.538 28.2421 173.22C28.1818 174.499 28.1669 175.465 27.896 176.706C27.7399 177.426 27.2133 178.723 27.2559 179.451C27.2823 179.901 27.7593 180.1 27.7601 180.512C27.761 180.872 27.3459 180.824 27.3174 181.132C27.2303 182.061 27.1799 182.902 27.1997 183.836C27.2257 185.099 27.1023 186.354 27.1498 187.618C27.1857 188.58 26.9618 190.858 28.0418 190.482C27.7535 191.162 27.6771 191.817 27.6486 192.47C27.6338 192.406 27.6276 192.342 27.6334 192.275C27.699 191.523 27.7213 191.238 28.0418 190.482L27.4252 190.697C27.0486 191.669 27.5111 192.622 27.6148 193.59C27.6115 193.687 27.6082 193.783 27.602 193.881C27.5152 195.287 27.6214 196.663 27.7263 198.066C27.9658 201.269 28.079 204.838 28.945 207.716C29.8945 210.871 29.5909 214.836 29.9568 218.31C30.376 222.286 31.0554 226.199 31.5613 230.16C32.0131 233.697 32.2311 237.535 33.0063 240.98C33.6423 243.801 34.18 246.549 34.5211 249.514C34.9932 253.626 36.4936 256.759 38.1455 260.495C38.8439 262.076 38.8918 262.051 37.6099 263.206C37.0726 263.69 36.617 264.256 36.0698 264.728C34.9742 265.676 33.7774 266.227 32.3385 266.398C28.7963 266.818 25.2178 268.077 23.228 271.13C21.3048 274.082 22.5512 277.541 23.9904 280.549C22.0907 280.71 16.954 280.594 18.1557 284.054C18.9772 286.42 23.3573 285.628 25.2921 285.653C28.1194 285.691 30.9662 285.552 33.7687 285.514C35.0444 285.496 35.1745 285.364 36.4167 285.851C37.5876 286.309 38.4808 286.359 39.7479 286.276C41.0967 286.187 42.4447 286.386 43.7518 286.192C45.3996 285.948 46.4246 285.742 48.0803 286.034C49.2767 286.246 50.2357 286.142 51.4296 285.985C52.7532 285.809 54.0062 285.915 55.3716 285.878C58.5606 285.793 61.7253 285.853 64.9169 285.889C68.0188 285.923 71.1233 285.499 74.2037 285.638C79.5762 285.881 85.0446 285.66 90.4419 285.785C92.9314 285.844 94.8542 287.292 97.3499 287.143C99.8861 286.992 102.457 286.969 104.973 286.614C109.307 286.004 113.482 285.14 117.884 284.915C120.666 284.773 123.112 285.971 125.73 286.723C126.679 286.995 127.532 286.868 128.418 287.07C129.255 287.261 130.114 287.807 130.997 288.034C133.09 288.57 135.089 288.774 136.928 288.824C137.166 289.264 137.441 289.318 137.752 288.985C137.878 288.913 138.005 288.841 138.131 288.77C138.717 288.692 139.136 288.428 139.751 288.389C140.699 288.328 141.67 288.457 142.55 288.373C144.393 288.195 146.123 288.079 148.161 288.288C149.37 288.412 150.427 288.237 151.617 288.259C151.604 288.258 153.25 288.58 153.287 288.565C153.433 288.509 153.663 288.102 153.758 288.085C153.724 287.695 153.841 287.52 154.109 287.558C154.325 287.51 154.468 287.623 154.536 287.895C154.472 287.903 155.049 288.195 155.09 288.201C155.123 288.206 156.61 288.03 156.715 287.991C157.141 287.831 157.323 287.367 157.663 287.297C158.066 287.215 158.306 287.66 158.656 287.641C159.425 287.599 159.335 287.256 159.926 287.149C162.004 286.775 164.548 287.262 166.694 287.265C168.832 287.269 170.959 287.073 173.018 286.983C175.55 286.871 178.03 287.352 180.581 287.011C183.007 286.686 185.434 286.544 187.879 286.442C192.987 286.226 198.229 286.454 203.29 285.853C208.56 285.228 213.918 285.853 219.196 285.759C224.761 285.66 230.356 285.609 235.919 285.381C241.456 285.154 246.97 284.495 252.485 284.362C253.889 284.329 255.266 283.994 256.664 283.893C257.944 283.8 259.202 284.003 260.492 283.891C262.842 283.685 264.979 283.842 267.34 283.806C269.981 283.766 272.546 283.363 275.173 283.201C277.828 283.038 280.458 283.412 283.091 282.889C284.53 282.602 287.216 280.63 285.379 278.978Z" fill="#081920"/>
<path fill-rule="evenodd" clip-rule="evenodd" d="M181.118 44.0697C181.115 44.0697 181.111 44.0701 181.108 44.0697C181.095 44.0847 181.081 44.1009 181.069 44.1151L181.118 44.0697Z" fill="#081920"/>
<path fill-rule="evenodd" clip-rule="evenodd" d="M203.113 31.9097C203.447 30.75 202.602 29.9195 202.036 29.0188C201.703 31.0623 200.68 30.9739 203.113 31.9097Z" fill="#081920"/>
<path fill-rule="evenodd" clip-rule="evenodd" d="M141.845 75.4454C141.854 75.4688 141.865 75.4893 141.872 75.5139C141.881 75.4733 141.87 75.452 141.845 75.4454Z" fill="#081920"/>
<path fill-rule="evenodd" clip-rule="evenodd" d="M132.626 73.915C132.702 74.0856 132.868 75.2667 132.988 75.2725C134.058 75.3233 132.754 73.3252 132.07 73.2084C131.081 73.8469 132.649 73.9674 132.626 73.915Z" fill="#081920"/>
<path fill-rule="evenodd" clip-rule="evenodd" d="M132.568 67.0136C132.497 66.1113 132.194 65.9969 131.329 66.4355C131.588 67.0029 131.895 66.9215 132.568 67.0136Z" fill="#081920"/>
<path fill-rule="evenodd" clip-rule="evenodd" d="M120.592 44.9191C121.005 44.9881 121.418 45.0567 121.831 45.1252C121.588 44.5751 121.345 44.0238 121.103 43.4733C120.933 43.9556 120.762 44.4372 120.592 44.9191Z" fill="#081920"/>
<path fill-rule="evenodd" clip-rule="evenodd" d="M129.07 226.217C129.07 226.216 129.07 226.216 129.071 226.215C129.041 226.226 129.036 226.229 129.07 226.217Z" fill="#081920"/>
<path fill-rule="evenodd" clip-rule="evenodd" d="M44.814 113.742C45.6887 112.28 47.3473 110.473 49.2354 111.081C50.9993 111.649 51.4874 113.961 52.2478 115.416C53.7262 118.243 54.1867 115.207 54.5142 113.491C54.247 110.054 52.9098 104.459 48.3859 105.051C44.9449 105.503 41.9735 111.031 42.6289 114.299C43.1794 117.046 44.1086 114.922 44.814 113.742Z" fill="#081920"/>
<path fill-rule="evenodd" clip-rule="evenodd" d="M175.217 48.9607C173.527 48.3577 173.529 50.1831 173.464 51.5555C173.404 52.8163 173.599 55.7741 175.191 56.2243C176.776 56.6736 176.926 54.0615 177.172 53.0055C176.802 51.752 176.598 49.4534 175.217 48.9607Z" fill="#081920"/>
<path fill-rule="evenodd" clip-rule="evenodd" d="M177.419 46.3843C176.316 45.1503 174.334 45.3013 172.678 45.8185C171.826 46.0846 171.422 47.8409 171.178 48.8184C170.418 51.8608 172.178 45.8185 177.419 46.3843Z" fill="#081920"/>
<path fill-rule="evenodd" clip-rule="evenodd" d="M155.338 52.5751C154.259 52.7325 153.878 53.4094 154.109 54.4897C154.376 55.7361 155.052 55.7464 156.261 55.8629C159.177 55.872 157.274 52.2922 155.338 52.5751Z" fill="#081920"/>
<path fill-rule="evenodd" clip-rule="evenodd" d="M180.927 45.8856C181.194 46.6257 182.643 46.9598 183.4 46.6778C184.301 46.342 184.488 45.5263 183.675 44.7772C182.979 44.1358 182.019 44.3051 181.148 44.3646C181.176 44.6446 180.761 45.4256 180.927 45.8856Z" fill="#081920"/>
<path fill-rule="evenodd" clip-rule="evenodd" d="M90.2622 130.2C91.6404 130.198 90.3399 127.867 89.2046 127.723C89.2285 128.444 89.1811 130.203 90.2622 130.2Z" fill="#081920"/>
<path fill-rule="evenodd" clip-rule="evenodd" d="M178.07 61C180.723 63.23 175.302 68.6667 172.584 64.4096C171.836 63.2386 171.7 62.1699 172.809 61.7375C173.369 61.5195 174.688 62.2335 175.478 62.1073C176.344 61.9688 177.285 61.3597 178.07 61Z" fill="#081920"/>
</svg>
